<?xml version="1.0" standalone="no"?>
<!DOCTYPE svg PUBLIC "-//W3C//DTD SVG 20010904//EN"
 "http://www.w3.org/TR/2001/REC-SVG-20010904/DTD/svg10.dtd">
<svg version="1.0" xmlns="http://www.w3.org/2000/svg"
 width="300.000000pt" height="269.000000pt" viewBox="0 0 300.000000 269.000000"
 preserveAspectRatio="xMidYMid meet">
<metadata>
Created by potrace 1.10, written by Peter Selinger 2001-2011
</metadata>
<g transform="translate(0.000000,269.000000) scale(0.100000,-0.100000)"
fill="#FFCA28" stroke="none">
<path d="M1040 2497 c0 -1 9 -20 20 -42 41 -81 22 -134 -90 -250 -68 -71 -80
-91 -80 -140 0 -41 18 -81 52 -112 27 -25 105 -62 132 -63 17 0 17 1 2 23 -36
48 -57 107 -51 138 4 16 36 63 71 103 72 82 94 126 94 187 0 54 -30 102 -84
134 -37 22 -66 31 -66 22z"/>
<path d="M1435 2414 c27 -51 32 -102 14 -137 -7 -12 -44 -56 -84 -98 -111
-117 -122 -183 -41 -264 36 -36 142 -91 154 -80 2 2 -8 20 -21 42 -14 21 -31
56 -37 79 -15 51 0 84 71 159 84 88 108 174 71 245 -20 38 -103 100 -133 100
-17 0 -17 -3 6 -46z"/>
<path d="M2675 2423 c-32 -9 -47 -23 -140 -133 -49 -58 -143 -166 -209 -241
-67 -75 -183 -205 -258 -290 -75 -85 -155 -172 -177 -194 -23 -21 -41 -44 -41
-51 0 -30 166 -75 223 -60 16 4 136 135 353 386 180 209 339 396 353 416 34
48 32 98 -6 135 -29 29 -64 41 -98 32z"/>
<path d="M1055 1735 c-95 -21 -164 -52 -253 -113 -145 -100 -168 -112 -243
-131 -40 -10 -75 -23 -77 -30 -6 -18 46 -58 93 -71 82 -23 177 8 317 103 37
25 93 55 124 67 81 30 202 37 281 16 85 -21 122 -41 242 -131 190 -142 313
-192 447 -182 40 3 89 14 115 26 50 24 102 68 94 81 -3 4 -52 5 -109 3 -159
-9 -203 10 -434 184 -133 100 -212 143 -307 169 -83 22 -217 26 -290 9z"/>
<path d="M1042 1432 c-55 -20 -175 -96 -208 -133 -44 -49 55 -49 196 1 131 46
191 43 311 -17 78 -38 106 -47 165 -51 42 -3 74 0 77 6 8 12 -186 156 -250
184 -68 31 -217 36 -291 10z"/>
<path d="M280 1335 c-19 -23 -7 -231 19 -328 30 -110 92 -238 158 -326 97
-130 248 -264 367 -327 51 -27 54 -30 49 -61 -16 -100 182 -156 552 -157 176
0 229 4 330 23 150 28 201 49 219 93 10 23 11 38 4 51 -5 10 -8 20 -6 21 2 2
30 18 63 36 159 89 254 169 348 295 129 174 207 395 207 592 0 109 -28 128
-110 73 -91 -61 -352 -124 -630 -152 -163 -16 -646 -16 -830 1 -282 25 -512
78 -638 147 -70 38 -84 41 -102 19z"/>
</g>
</svg>
