<svg width="11" height="10" viewBox="0 0 11 10" fill="none" xmlns="http://www.w3.org/2000/svg">
<path d="M5.49973 0.000933971C4.11205 0.000933971 2.72438 -0.00174393 1.33671 0.00182686C0.484338 0.00361226 0.00230425 0.499952 0.00144501 1.37658C-0.00113271 3.78419 -0.00113271 6.19179 0.00144501 8.5994C0.00230425 9.50727 0.480042 9.99826 1.35819 9.99915C4.11893 10.0009 6.87967 10.0009 9.64127 9.99915C10.5203 9.99826 10.998 9.50638 10.9989 8.60118C11.0006 6.20875 11.0006 3.81543 10.9989 1.423C10.998 0.488347 10.5254 0.00271956 9.62065 0.00182686C8.24672 4.14643e-05 6.87365 0.000933971 5.49973 0.000933971ZM4.967 2.90845C4.03214 3.26017 3.45559 3.92791 3.44614 4.98576C3.43669 6.0686 4.03128 6.73723 4.9627 7.08895C4.9627 7.70759 4.9627 8.29677 4.9627 8.92613C3.71594 8.92613 2.48981 8.93059 1.26453 8.91541C1.18634 8.91452 1.04714 8.76098 1.0437 8.67349C1.02222 8.17447 1.03339 7.67456 1.03339 7.14341C1.4381 7.14341 1.79382 7.15055 2.14783 7.14162C2.568 7.13002 2.74414 6.94969 2.74758 6.51049C2.75445 5.51513 2.75359 4.51977 2.74844 3.52441C2.74586 3.037 2.57143 2.8656 2.09284 2.85846C1.74313 2.8531 1.39256 2.85757 1.03167 2.85757C1.03167 2.54691 1.03167 2.30945 1.03167 2.07199C1.03167 1.07217 1.03167 1.07217 2.00605 1.07217C2.98731 1.07217 3.96942 1.07217 4.967 1.07217C4.967 1.71402 4.967 2.30409 4.967 2.90845ZM6.0316 7.09163C6.96903 6.73991 7.54386 6.07128 7.55245 5.01254C7.5619 3.93059 6.96473 3.26285 6.03675 2.91202C6.03675 2.2916 6.03675 1.70242 6.03675 1.07396C7.26976 1.07396 8.48129 1.0686 9.69282 1.08467C9.78476 1.08556 9.94887 1.24 9.95317 1.33016C9.97895 1.82829 9.9652 2.3282 9.9652 2.85757C9.55792 2.85757 9.20305 2.84953 8.84819 2.85935C8.42888 2.87096 8.25359 3.05128 8.25016 3.49228C8.24328 4.50281 8.24242 5.51245 8.25102 6.52298C8.25445 6.95683 8.43661 7.13091 8.86365 7.14073C9.21766 7.14877 9.57081 7.14252 9.96606 7.14252C9.96606 7.37373 9.96606 7.56298 9.96606 7.75134C9.96606 8.92791 9.96606 8.92791 8.81811 8.92791C7.89357 8.92791 6.96989 8.92791 6.02988 8.92791C6.0316 8.28517 6.0316 7.6951 6.0316 7.09163ZM5.5066 6.07039C4.93177 6.07396 4.46692 5.5919 4.4695 4.99558C4.47207 4.41622 4.91544 3.94487 5.47137 3.9288C6.04534 3.91363 6.52136 4.38676 6.52996 4.98219C6.53941 5.57851 6.07971 6.06771 5.5066 6.07039ZM1.6847 3.94487C1.6847 4.68313 1.6847 5.37051 1.6847 6.04718C1.45528 6.04718 1.26109 6.04718 1.05831 6.04718C1.05831 5.33391 1.05831 4.64564 1.05831 3.94487C1.28 3.94487 1.47418 3.94487 1.6847 3.94487ZM9.30015 3.96005C9.53558 3.96005 9.73922 3.96005 9.93599 3.96005C9.93599 4.67956 9.93599 5.36873 9.93599 6.04985C9.70915 6.04985 9.5141 6.04985 9.30015 6.04985C9.30015 5.34998 9.30015 4.67242 9.30015 3.96005Z" fill="#141514"/>
</svg>
