<svg width="24" height="24" viewBox="0 0 24 24" fill="none" xmlns="http://www.w3.org/2000/svg">
<path d="M12 21C16.9706 21 21 16.9706 21 12C21 7.02944 16.9706 3 12 3C7.02944 3 3 7.02944 3 12C3 16.9706 7.02944 21 12 21Z" stroke="black" stroke-width="1.5" stroke-linecap="round" stroke-linejoin="round"/>
<path d="M14.7931 7.96552H11.2242C10.11 7.96552 9.20691 8.86867 9.20691 9.98276C9.20691 11.0969 10.11 12 11.2242 12H12.7759C13.89 12 14.7931 12.9031 14.7931 14.0172C14.7931 15.1314 13.89 16.0345 12.7759 16.0345H9.20691" stroke="black" stroke-width="1.5" stroke-linecap="round" stroke-linejoin="round"/>
<path d="M12 6.72412V7.34481" stroke="black" stroke-width="1.5" stroke-linecap="round" stroke-linejoin="round"/>
<path d="M12 16.6552V17.2758" stroke="black" stroke-width="1.5" stroke-linecap="round" stroke-linejoin="round"/>
<path d="M9.88 14.12L14.121 9.878L9.878 14.121L6.588 17.412M14.12 9.88L17.41 6.59M17.41 6.59L21 3M17.41 6.59L6.589 17.411L3 21" stroke="white" stroke-width="2" stroke-linecap="round" stroke-linejoin="round"/>
<path d="M9.88 14.12L14.121 9.878L9.878 14.121L6.588 17.412M14.12 9.88L17.41 6.59M17.41 6.59L21 3M17.41 6.59L6.589 17.411L3 21" stroke="black" stroke-width="1.5" stroke-linecap="round" stroke-linejoin="round"/>
</svg>
