<svg width="375" height="667" viewBox="0 0 375 667" fill="none" xmlns="http://www.w3.org/2000/svg">
<g opacity="0.2" clip-path="url(#clip0_189_818)">
<path d="M9.79528 874H12.4079C8.75299 868.412 5.38063 862.684 2.26305 856.701C8.04424 853.956 13.8393 851.243 19.6483 848.558C25.5824 845.877 31.5396 843.243 37.52 840.659C45.0105 842.366 52.5057 844.073 60.0008 845.775C67.4451 847.463 74.8893 849.151 82.3335 850.839C85.8217 858.858 89.7545 866.492 94.234 874H96.6845C92.2004 866.45 88.2629 858.775 84.7747 850.71C90.5837 848.33 96.4066 845.988 102.243 843.679C108.191 841.402 114.153 839.161 120.129 836.959C127.23 838.809 134.332 840.659 141.433 842.505C148.47 844.333 155.511 846.16 162.548 847.987C165.271 855.746 168.37 863.19 171.951 870.592C169.181 871.714 166.416 872.855 163.659 874.005H167.74C169.7 873.193 171.659 872.377 173.624 871.579C177.158 872.382 180.692 873.198 184.227 874.005H189.387C184.338 872.836 179.289 871.668 174.235 870.513C170.687 863.125 167.615 855.695 164.919 847.955C170.733 845.965 176.556 844.013 182.397 842.107C188.327 840.233 194.265 838.406 200.227 836.629C206.926 838.596 213.629 840.562 220.332 842.524C226.956 844.462 233.58 846.401 240.204 848.34C242.062 855.482 244.249 862.406 246.829 869.321C242.28 870.842 237.749 872.41 233.233 874.005H237.532C241.441 872.632 245.36 871.278 249.293 869.966C246.634 862.86 244.392 855.746 242.493 848.395C254.505 845.149 266.563 842.153 278.699 839.398C278.056 832.149 277.778 824.989 277.842 817.712C264.886 812.879 251.929 808.047 238.972 803.2C239.625 795.752 240.594 788.424 241.868 781.06C256.056 778.931 270.269 777.118 284.541 775.629C286.806 768.13 289.331 760.779 292.119 753.46C280.293 747.028 268.499 740.54 256.742 733.991C260.212 726.32 263.885 718.793 267.776 711.331C283.105 710.876 298.419 710.816 313.753 711.169C318.445 703.725 323.402 696.476 328.511 689.315C318.357 681.023 308.3 672.629 298.331 664.114C304.14 656.573 310.098 649.171 316.212 641.876C331.768 643.638 347.24 645.846 362.666 648.536C369.424 641.542 376.313 634.706 383.345 627.986C375.303 617.685 367.442 607.26 359.761 596.681C367.465 589.65 375.275 582.758 383.21 575.987C398.182 580.421 412.964 585.328 427.611 590.735C435.954 584.539 444.39 578.501 452.941 572.597C447.378 560.27 442.083 547.85 437.057 535.295C446.201 529.169 455.438 523.205 464.777 517.384C478.424 524.828 491.779 532.717 504.879 541.088C514.362 536.065 523.914 531.223 533.568 526.539C530.779 512.357 528.319 498.142 526.17 483.853C536.384 479.025 546.668 474.378 557.04 469.912C568.57 480.454 579.72 491.343 590.536 502.618C600.422 499.246 610.358 496.069 620.364 493.087C630.254 505.623 639.727 518.437 648.83 531.553C658.243 529.665 667.674 527.986 677.162 526.525C678.38 510.683 680.038 494.914 682.072 479.151C692.055 477.546 702.047 476.155 712.09 474.995C719.182 490.383 725.848 505.929 732.138 521.665C741.663 521.572 751.159 521.721 760.674 522.133C764.889 505.655 769.457 489.28 774.344 472.987C784.09 473.534 793.786 474.346 803.486 475.44C807.34 493.37 810.81 511.365 813.927 529.433C822.965 531.59 831.887 534.029 840.758 536.784C847.628 520.469 854.822 504.301 862.317 488.264C871.36 491.292 880.24 494.613 889.046 498.268C889.458 518.182 889.556 538.097 889.366 558.016C897.468 562.718 905.324 567.704 913.037 573.024C922.121 557.765 931.497 542.697 941.142 527.787C948.966 533.626 956.498 539.729 963.831 546.171C960.848 567.333 957.623 588.453 954.186 609.546C960.857 617.078 967.171 624.818 973.221 632.855C983.815 619.693 994.655 606.749 1005.74 593.991C1011.78 602.923 1017.42 612.05 1022.73 621.442C1016.69 642.919 1010.48 664.35 1004.13 685.74C1008.87 696.281 1013.17 706.948 1017.12 717.81C1028.23 707.899 1039.52 698.238 1051.03 688.801C1054.82 701.425 1058.12 714.132 1061 726.997C1072.93 718.821 1085.03 710.955 1097.34 703.372C1107.05 680.587 1116.61 657.746 1126.02 634.845C1138.95 626.743 1152.04 618.956 1165.34 611.475C1175.98 586.561 1186.44 561.568 1196.7 536.492C1210.92 528.265 1225.31 520.371 1239.92 512.821C1251.38 485.82 1262.61 458.721 1273.57 431.512C1289.06 423.201 1304.73 415.252 1320.61 407.692C1332.77 378.655 1344.62 349.497 1356.15 320.201C1372.9 311.843 1389.82 303.89 1406.97 296.372C1419.67 265.354 1432 234.189 1443.92 202.861C1461.93 194.499 1480.11 186.577 1498.52 179.143C1511.61 146.201 1524.25 113.088 1536.38 79.7791C1555.66 71.4451 1575.12 63.5933 1594.81 56.2842C1601.96 37.5848 1608.94 18.825 1615.77 0.00964082H1612.64C1606.46 17.1601 1600.15 34.2688 1593.69 51.3218C1574.53 58.5753 1555.58 66.3296 1536.8 74.5338C1529.58 51.4239 1520.85 29.0003 1510.39 7.16571C1511.1 4.7819 1511.8 2.39345 1512.5 0.00964082H1509.43C1508.82 2.08272 1508.22 4.16044 1507.61 6.23352C1497.75 11.6875 1487.95 17.2204 1478.19 22.8321C1468.44 28.5226 1458.75 34.292 1449.1 40.1309C1440.83 26.2315 1431.88 12.8887 1422.2 0.00964082H1416.75C1427.55 14.0899 1437.45 28.7359 1446.53 44.0405C1442.29 59.2199 1437.93 74.3622 1433.44 89.4674C1428.92 104.549 1424.28 119.594 1419.53 134.602C1410.38 139.963 1401.27 145.394 1392.2 150.89C1383.17 156.465 1374.18 162.104 1365.23 167.813C1356.07 150.904 1345.91 134.727 1334.6 119.177C1337.99 105.05 1341.28 90.9051 1344.46 76.7275C1347.56 62.5452 1350.55 48.3444 1353.44 34.1111C1362.85 27.0061 1372.3 19.9613 1381.8 12.9768C1387.8 8.6266 1393.83 4.30885 1399.87 0.00964082H1393.43C1389.33 2.96389 1385.23 5.92279 1381.14 8.90023C1371.63 15.9264 1362.16 23.0083 1352.74 30.1551C1342.61 19.5346 1332 9.51241 1320.89 0.00964082H1314.08C1326.87 10.6904 1338.98 22.0251 1350.49 34.1204C1347.65 48.3212 1344.69 62.4942 1341.63 76.6486C1338.49 90.7938 1335.24 104.916 1331.9 119.015C1322.94 125.665 1314.02 132.376 1305.15 139.147C1296.37 145.937 1287.64 152.777 1278.95 159.678C1267.73 146.595 1255.79 134.324 1243.01 122.743C1245.16 109.526 1247.2 96.2942 1249.13 83.0441C1250.98 69.8079 1252.71 56.5579 1254.33 43.2892C1263.21 35.2242 1272.13 27.2101 1281.1 19.2471C1288.45 12.7959 1295.83 6.3912 1303.24 0.0142786H1298.04C1292.02 5.23176 1286.02 10.4632 1280.05 15.727C1271.07 23.7225 1262.15 31.7737 1253.27 39.8712C1238.57 29.7191 1223.37 20.5132 1207.6 12.1327C1207.79 8.09326 1207.95 4.05377 1208.12 0.0142786H1205.06C1204.9 4.33667 1204.73 8.6637 1204.54 12.9861C1196.08 21.6216 1187.66 30.3081 1179.29 39.0364C1171.07 47.6997 1162.91 56.4095 1154.78 65.1609C1139.34 58.1486 1123.63 51.9758 1107.57 46.531C1107.13 34.7789 1106.56 23.0361 1105.86 11.2933C1105.6 7.51818 1105.33 3.75695 1105.05 0.0003653H1101.9C1102.23 4.18826 1102.55 8.3808 1102.84 12.5733C1103.57 24.2837 1104.16 35.9987 1104.64 47.7229C1097.06 56.8176 1089.52 65.9493 1082.03 75.1228C1074.71 84.1943 1067.42 93.2936 1060.21 102.458C1044.61 98.0426 1028.88 94.351 1012.95 91.2901C1011.6 80.4748 1010.12 69.6827 1008.52 58.8999C1006.84 48.1821 1005.03 37.492 1003.09 26.8205C1009.38 17.8418 1015.72 8.9095 1022.11 0.00500306H1018.51C1012.67 8.20457 1006.85 16.4273 1001.09 24.6872C983.259 23.0964 965.42 22.1921 947.525 21.9091C945.473 14.5861 943.351 7.29093 941.165 0.00964082H937.7C940.108 7.89847 942.439 15.8059 944.685 23.7457C938.501 33.6009 932.377 43.4933 926.327 53.432C920.426 63.2084 914.57 73.0126 908.771 82.8447C891.571 83.1554 874.417 84.0366 857.268 85.4372C853.794 76.3889 850.18 67.4056 846.438 58.464C842.639 49.5827 838.701 40.7709 834.634 32.0148C839.892 21.8071 845.201 11.6272 850.56 1.47054C850.82 0.983571 851.084 0.496606 851.348 0.00964082H848.059C848.045 0.0374674 848.031 0.0606562 848.017 0.0884828C842.676 10.2545 837.386 20.4436 832.147 30.6606C813.404 33.6798 794.777 37.2277 776.229 41.2579C771.463 33.2299 766.525 25.3179 761.577 17.4012C757.969 11.553 754.286 5.76046 750.538 0.00964082H746.253C750.571 6.53961 754.805 13.116 758.941 19.7665C763.926 27.6414 768.869 35.5303 773.649 43.5258C769.165 53.5572 764.732 63.6119 760.35 73.6898C756.12 83.5821 751.942 93.493 747.819 103.432C730.216 107.703 712.743 112.415 695.367 117.535C690.1 110.412 684.712 103.395 679.209 96.4519C673.646 89.5509 667.929 82.7844 662.222 75.9994C665.784 65.838 669.407 55.7045 673.085 45.5849C676.911 35.2474 680.798 24.933 684.736 14.6418C699.953 9.4614 715.263 4.58247 730.67 0.0003653H719.478C707.731 3.63173 696.038 7.43006 684.397 11.4C681.187 7.56455 677.931 3.76623 674.646 0.0003653H669.754C673.831 4.6103 677.861 9.25734 681.831 13.9693C677.912 24.2651 674.049 34.5842 670.241 44.9217C666.581 55.0413 662.982 65.1841 659.438 75.3454C640.909 82.0841 622.555 89.2402 604.341 96.7904C598.041 90.7613 591.639 84.8575 585.13 79.0556C578.548 73.2863 571.863 67.656 565.077 62.1278C567.926 51.9433 570.83 41.7773 573.795 31.6253C576.899 21.2413 580.058 10.8759 583.277 0.52907C583.667 0.348197 584.051 0.1766 584.44 -0.00427246H579.627C579.78 0.120947 579.938 0.241529 580.09 0.366748C576.894 10.7136 573.758 21.079 570.677 31.4629C567.736 41.615 564.855 51.781 562.024 61.9609C542.777 71.2874 523.733 80.9942 504.865 91.0628C497.528 86.3416 490.111 81.7687 482.612 77.3118C475.01 72.8874 467.339 68.6114 459.589 64.456C461.678 54.3642 463.832 44.291 466.042 34.227C468.381 23.9173 470.78 13.6261 473.236 3.34419C475.172 2.22185 477.108 1.10879 479.049 -0.00427246H473.314C472.953 0.204427 472.596 0.413126 472.235 0.621825C471.837 0.413126 471.438 0.209065 471.044 -0.00427246H462.711C465.087 1.21546 467.464 2.44447 469.831 3.69666C467.399 13.9739 465.022 24.2605 462.706 34.5656C460.52 44.6249 458.389 54.6935 456.323 64.7806C436.872 76.4631 417.624 88.461 398.59 100.816C382.168 94.0727 365.556 87.9045 348.722 82.2835C351.321 62.304 354.235 42.3756 357.436 22.4842C368.359 14.8829 379.361 7.39296 390.427 0.0003653H385.443C375.553 6.65555 365.709 13.3849 355.926 20.2025C338.29 14.549 320.502 9.4985 302.533 5.01842C302.788 3.34419 303.052 1.6746 303.311 0.0003653H299.615C299.272 2.23577 298.924 4.47117 298.586 6.70657C277.453 22.9016 256.608 39.4492 236.021 56.3353C226.576 54.9857 217.121 53.7659 207.639 52.6714C198.013 51.6743 188.382 50.8024 178.738 50.0557C179.516 40.0011 180.359 29.951 181.258 19.901C181.902 13.2644 182.583 6.63236 183.277 0.0003653H179.585C178.849 7.17498 178.126 14.3496 177.445 21.5335C176.57 31.5696 175.75 41.6057 174.995 51.6511C154.269 70.1511 133.836 88.9619 113.681 108.083C103.726 108.227 93.7754 108.496 83.8251 108.886C73.7219 109.391 63.6373 110.017 53.548 110.764C53.5248 101.192 53.5758 91.6193 53.6869 82.047C53.8815 72.2103 54.1409 62.3736 54.4605 52.5416C72.1608 34.8021 90.0695 17.2946 108.196 0.0003653H104.495C87.0075 16.7473 69.7057 33.6844 52.6122 50.8395C42.1848 51.7346 31.7758 52.7549 21.3716 53.8958C10.8144 55.1665 0.280399 56.5625 -10.2443 58.0791C-10.0035 47.9548 -9.70235 37.8352 -9.34102 27.7156C-8.93801 18.4726 -8.48404 9.23415 -7.98837 0.0003653H-11.9676C-11.9768 0.1766 -11.9861 0.357473 -11.9954 0.533708V62.0304C-1.56791 60.5046 8.86881 59.0994 19.3287 57.8193C29.7283 56.6553 40.1326 55.6118 50.5601 54.6935C50.2636 64.5116 50.0274 74.3298 49.856 84.1525C49.768 93.711 49.7448 103.265 49.7911 112.823C29.8442 133.262 10.189 153.979 -9.17426 174.969C-10.1146 175.118 -11.055 175.266 -11.9954 175.414V178.735C-11.6016 178.675 -11.2125 178.61 -10.8187 178.545C-10.0776 187.273 -9.2669 195.992 -8.37749 204.711C-7.42786 213.194 -6.4041 221.662 -5.31086 230.126C-7.5483 232.607 -9.7672 235.102 -11.9954 237.588V241.159C-9.08161 237.904 -6.16785 234.643 -3.23557 231.397C6.74718 229.978 16.7346 228.67 26.7451 227.473C36.612 226.397 46.479 225.433 56.3691 224.584C57.3604 232.867 58.4212 241.136 59.5561 249.401C60.7513 257.452 62.0159 265.494 63.3547 273.522C47.058 290.7 31.0115 308.105 15.2198 325.752C6.13571 327.037 -2.93446 328.419 -11.9907 329.884V332.741C-3.29115 331.327 5.41769 329.991 14.1451 328.743C16.1185 336.039 18.1845 343.306 20.3339 350.555C22.5019 357.641 24.7578 364.695 27.0972 371.726C13.8393 386.994 0.813122 402.442 -11.9954 418.081V421.754C1.52187 405.22 15.2893 388.909 29.2975 372.793C38.7383 371.615 48.1883 370.544 57.6569 369.607C66.9911 368.739 76.3253 367.988 85.678 367.362C87.8645 374.328 90.139 381.261 92.4969 388.172C94.8687 394.947 97.3238 401.686 99.8624 408.402C86.9983 422.533 74.3519 436.854 61.9418 451.389C52.728 452.451 43.5328 453.592 34.3422 454.853C25.0358 456.184 15.7571 457.636 6.48777 459.19C3.21732 453.1 0.0348854 446.965 -3.02248 440.764C-6.09837 434.48 -9.09087 428.168 -11.9954 421.809V430.037C-10.0173 434.22 -8.00227 438.389 -5.95013 442.545C-2.86961 448.722 0.331355 454.844 3.6296 460.91C-1.62814 467.621 -6.83491 474.374 -11.9907 481.163V485.027C-6.07057 477.212 -0.0855579 469.444 5.96894 461.731C15.2337 460.168 24.5077 458.707 33.8048 457.367C43.0093 456.096 52.2277 454.969 61.4508 453.81C64.7629 459.695 68.1862 465.52 71.7022 471.285C75.2089 476.985 78.7897 482.638 82.4447 488.245C71.9014 501.189 61.5851 514.305 51.5144 527.625C42.4071 529.09 33.3231 530.672 24.2483 532.341C15.0715 534.085 5.91799 535.94 -3.22167 537.883C-6.17712 534.526 -9.09551 531.131 -11.9907 527.722V532.499C-9.94786 534.855 -7.89109 537.206 -5.81579 539.539C-7.88646 542.572 -9.94323 545.614 -11.9907 548.666V552.97C-9.11867 548.657 -6.22344 544.358 -3.29579 540.077C5.83461 538.124 14.9743 536.265 24.1463 534.516C33.2119 532.837 42.2867 531.251 51.3847 529.776C55.5862 534.832 59.848 539.831 64.1653 544.784C68.5059 549.691 72.9066 554.547 77.3583 559.351C68.9089 571.252 60.7096 583.296 52.7744 595.545C43.9868 597.214 35.2223 598.986 26.4672 600.841C17.6332 602.761 8.82711 604.783 0.0348845 606.888C-3.99991 603.6 -8.0069 600.266 -11.9907 596.913V600.502C-8.77124 603.174 -5.53785 605.826 -2.28593 608.456C-5.59344 614.263 -8.82683 620.106 -11.9907 625.982V631.19C-8.0069 623.673 -3.90726 616.224 0.312826 608.822C9.09579 606.712 17.888 604.69 26.7127 602.766C35.4539 600.906 44.2091 599.13 52.9874 597.455C57.9487 601.773 62.9517 606.04 67.9917 610.26C73.0641 614.453 78.1736 618.603 83.3155 622.708C76.8858 633.583 70.7294 644.584 64.8695 655.775C56.4802 657.57 48.1142 659.453 39.7621 661.405C31.3543 663.423 22.9697 665.514 14.6083 667.713C8.82248 664.202 3.05982 660.649 -2.67505 657.055C-5.788 655.079 -8.89168 653.09 -11.9907 651.086V654.004C-9.58654 655.534 -7.18234 657.064 -4.76888 658.581C0.989152 662.157 6.77034 665.691 12.5747 669.183C7.73388 680.314 3.25438 691.537 -0.822103 702.969C-4.55116 704.101 -8.27095 705.255 -11.9907 706.419V708.275C-8.0069 707.022 -4.0138 705.789 -0.0160713 704.569C6.24225 707.63 12.5052 710.668 18.7867 713.687C25.1006 716.669 31.4238 719.628 37.7562 722.573C34.9814 732.646 32.6189 742.742 30.7104 753.02C23.2013 755.445 15.7154 757.926 8.2388 760.454C1.48018 762.805 -5.26454 765.203 -11.9954 767.633V769.451C-4.88469 766.873 2.23989 764.336 9.383 761.85C16.8365 759.322 24.3038 756.851 31.7944 754.425C38.4928 756.985 45.1958 759.536 51.9035 762.063C58.6158 764.572 65.3373 767.068 72.0635 769.539C71.2297 778.699 70.8545 787.78 70.9934 796.981C64.1978 799.309 57.416 801.684 50.6527 804.1C43.9543 806.563 37.2745 809.067 30.6085 811.613C23.3403 809.619 16.0721 807.611 8.80858 805.603C1.87393 803.659 -5.06535 801.716 -12 799.768V801.512C-5.44984 803.335 1.10033 805.153 7.65049 806.971C14.9326 808.965 22.2146 810.955 29.5014 812.935C31.0439 821.988 33.1239 830.758 35.8523 839.533C29.8442 842.12 23.8591 844.759 17.8973 847.449C12.0559 850.139 6.23299 852.861 0.424003 855.616C-3.71733 854.8 -7.85867 853.993 -11.9954 853.181V854.647C-8.08102 855.408 -4.16204 856.164 -0.247689 856.924C2.8421 862.837 6.1774 868.486 9.79528 874ZM180.947 841.044C175.078 842.951 169.237 844.903 163.4 846.897C156.373 845.061 149.345 843.22 142.323 841.383C135.235 839.523 128.143 837.664 121.055 835.804C119.114 827.586 117.678 819.428 116.669 811.043C123.228 808.937 129.811 806.924 136.407 804.953C143.045 802.996 149.711 801.127 156.391 799.309C163.052 801.582 169.714 803.845 176.375 806.099C182.995 808.334 189.619 810.56 196.243 812.777C196.73 820.453 197.582 827.975 198.847 835.563C192.862 837.339 186.9 839.166 180.947 841.044ZM1067.01 448.912C1069.42 437.406 1071.77 425.886 1074.07 414.352C1080.71 407.293 1087.41 400.29 1094.16 393.338C1101.03 386.321 1107.96 379.369 1114.93 372.45C1123.94 382.899 1132.31 393.714 1140.19 405.049C1136.97 417.172 1133.69 429.281 1130.35 441.376C1126.99 453.346 1123.58 465.298 1120.11 477.235C1113.37 483.162 1106.67 489.136 1100 495.156C1093.45 501.161 1086.94 507.209 1080.48 513.317C1073.93 502.905 1066.97 492.874 1059.49 483.111C1062.05 471.726 1064.56 460.326 1067.01 448.912ZM1057.64 483.468C1051.42 490.068 1045.25 496.714 1039.14 503.415C1033.16 510.057 1027.23 516.73 1021.34 523.451C1014.19 515.2 1006.74 507.325 998.898 499.742C1000.58 488.932 1002.21 478.112 1003.79 467.287C1005.31 456.389 1006.77 445.485 1008.17 434.568C1014.11 427.055 1020.1 419.583 1026.13 412.149C1032.32 404.636 1038.55 397.16 1044.83 389.716C1054.32 397.661 1063.35 405.99 1072.04 414.816C1069.78 426.331 1067.45 437.833 1065.07 449.321C1062.65 460.716 1060.17 472.097 1057.64 483.468ZM1080.51 516.438C1086.95 510.358 1093.46 504.343 1100 498.37C1106.66 492.382 1113.35 486.441 1120.09 480.547C1126.73 492.934 1132.71 505.535 1138.16 518.493C1134.11 530.319 1130.03 542.127 1125.9 553.925C1121.79 565.524 1117.64 577.109 1113.46 588.681C1107.11 593.49 1100.79 598.35 1094.51 603.257C1088.32 608.192 1082.16 613.173 1076.05 618.2C1071.48 606.564 1066.5 595.178 1061.01 583.955C1064.34 572.81 1067.64 561.652 1070.89 550.484C1074.14 539.14 1077.34 527.796 1080.51 516.438ZM1122 477.245C1125.49 465.288 1128.93 453.318 1132.32 441.334C1135.69 429.221 1139 417.097 1142.25 404.956C1149.45 398.611 1156.7 392.313 1164 386.066C1171.39 379.819 1178.83 373.623 1186.31 367.473C1194.31 380.974 1201.49 394.818 1207.98 409.102C1203.74 421.819 1199.44 434.517 1195.09 447.196C1190.74 459.718 1186.34 472.217 1181.89 484.702C1174.81 489.66 1167.79 494.706 1160.81 499.784C1153.9 504.909 1147.02 510.08 1140.18 515.297C1134.7 502.302 1128.68 489.664 1122 477.245ZM1188.37 363.986C1191.93 351.264 1195.43 338.524 1198.85 325.766C1202.23 312.919 1205.54 300.059 1208.78 287.171C1216.73 280.562 1224.72 274.004 1232.75 267.497C1240.88 261.004 1249.05 254.567 1257.27 248.176C1266.8 262.725 1275.34 277.751 1283.05 293.343C1278.71 306.918 1274.29 320.47 1269.8 333.998C1265.3 347.406 1260.72 360.79 1256.09 374.152C1248.32 379.272 1240.6 384.452 1232.91 389.688C1225.29 394.975 1217.7 400.323 1210.15 405.721C1203.63 391.395 1196.41 377.519 1188.37 363.986ZM1196.61 325.761C1193.22 338.501 1189.76 351.218 1186.23 363.921C1178.74 370.103 1171.29 376.336 1163.88 382.616C1156.58 388.9 1149.32 395.226 1142.11 401.603C1134.19 390.24 1125.78 379.402 1116.71 368.934C1119.24 356.885 1121.7 344.827 1124.09 332.75C1126.43 320.618 1128.68 308.467 1130.87 296.307C1138.28 288.914 1145.73 281.563 1153.22 274.259C1160.85 266.917 1168.52 259.627 1176.24 252.378C1187 263.43 1197.03 275.006 1206.44 287.231C1203.24 300.096 1199.97 312.938 1196.61 325.761ZM1175.69 249.048C1167.97 256.325 1160.29 263.652 1152.66 271.022C1145.16 278.359 1137.71 285.737 1130.3 293.158C1119.78 283.79 1108.88 275.08 1097.43 266.871C1098.79 254.998 1100.07 243.116 1101.25 231.221C1102.37 219.325 1103.38 207.424 1104.3 195.514C1111.71 187.19 1119.18 178.907 1126.68 170.665C1134.34 162.354 1142.05 154.09 1149.8 145.867C1163.24 154.206 1176.13 163.208 1188.57 172.998C1186.64 185.715 1184.62 198.413 1182.5 211.097C1180.32 223.768 1178.05 236.415 1175.69 249.048ZM1128.54 296.789C1126.39 308.931 1124.16 321.054 1121.86 333.168C1119.5 345.221 1117.07 357.261 1114.57 369.287C1107.6 376.234 1100.66 383.214 1093.79 390.259C1087.03 397.239 1080.33 404.269 1073.68 411.356C1064.94 402.516 1055.86 394.173 1046.31 386.219C1047.89 374.852 1049.4 363.471 1050.84 352.085C1052.21 340.662 1053.5 329.23 1054.72 317.789C1061.39 309.858 1068.13 301.979 1074.92 294.15C1081.84 286.224 1088.82 278.354 1095.85 270.53C1107.24 278.734 1118.08 287.435 1128.54 296.789ZM1048.69 352.832C1047.28 364.199 1045.8 375.557 1044.24 386.906C1037.97 394.368 1031.73 401.867 1025.55 409.408C1019.52 416.87 1013.53 424.365 1007.59 431.897C998.49 425.144 989.161 418.855 979.502 412.942C980.206 402.247 980.841 391.548 981.406 380.844C981.897 370.122 982.314 359.399 982.652 348.672C988.498 340.449 994.391 332.259 1000.33 324.106C1006.43 315.846 1012.58 307.623 1018.78 299.433C1030.35 305.3 1041.54 311.653 1052.49 318.601C1051.3 330.019 1050.03 341.428 1048.69 352.832ZM516.219 390.978C504.133 397.053 492.168 403.328 480.3 409.816C473.611 405.707 466.875 401.7 460.08 397.772C453.168 393.923 446.215 390.175 439.206 386.516C438.405 378.97 437.682 371.42 437.048 363.861C436.455 356.134 435.936 348.403 435.51 340.667C449.138 332.384 462.901 324.342 476.803 316.528C490.297 325.089 503.457 334.086 516.331 343.556C515.955 359.367 515.909 375.167 516.219 390.978ZM263 552.126C254.843 551.435 246.685 550.86 238.514 550.382C234.692 545.127 230.926 539.836 227.215 534.502C223.523 529.109 219.892 523.678 216.32 518.201C226.233 507.742 236.318 497.47 246.579 487.35C254.843 488.19 263.088 489.131 271.325 490.193C279.445 491.315 287.538 492.544 295.621 493.894C298.544 499.84 301.532 505.753 304.594 511.634C307.666 517.435 310.802 523.205 314.003 528.937C304.886 537.378 295.918 545.958 287.093 554.7C279.075 553.749 271.042 552.896 263 552.126ZM298.165 572.24C301.977 577.392 305.822 582.512 309.704 587.614C302.121 595.503 294.695 603.517 287.418 611.689C279.524 611.062 271.635 610.52 263.732 610.065C255.732 609.685 247.732 609.411 239.723 609.231C235.253 604.611 230.815 599.964 226.4 595.294C222.032 590.554 217.7 585.796 213.392 581.005C221.559 571.257 229.902 561.68 238.416 552.237C246.583 552.706 254.736 553.271 262.889 553.948C270.931 554.704 278.954 555.549 286.977 556.485C290.674 561.768 294.399 567.013 298.165 572.24ZM388.352 320.729C395.94 323.809 403.472 327 410.958 330.325C418.333 333.692 425.647 337.166 432.911 340.769C433.36 348.5 433.898 356.217 434.509 363.935C435.162 371.49 435.908 379.026 436.728 386.562C424.327 394.349 412.061 402.326 399.915 410.503C392.47 407.52 384.998 404.64 377.48 401.858C369.841 399.135 362.17 396.543 354.453 394.062C352.97 386.864 351.567 379.657 350.251 372.431C348.963 365.048 347.759 357.66 346.638 350.249C360.391 340.189 374.293 330.353 388.352 320.729ZM387.731 269.955C403.18 259.683 418.796 249.67 434.579 239.916C449.235 247.49 463.582 255.546 477.673 264.13C476.585 280.845 475.825 297.559 475.427 314.301C461.511 322.144 447.744 330.223 434.101 338.534C426.842 334.912 419.537 331.419 412.163 328.029C404.681 324.685 397.158 321.476 389.575 318.378C389.075 310.41 388.658 302.438 388.329 294.461C388.042 286.294 387.843 278.127 387.731 269.955ZM347.583 372.886C348.921 380.102 350.344 387.295 351.849 394.484C339.444 403.857 327.191 413.415 315.087 423.173C307.008 421.332 298.915 419.62 290.79 418.016C282.535 416.467 274.271 415.052 265.979 413.74C263.811 406.978 261.703 400.202 259.66 393.403C257.659 386.46 255.737 379.504 253.902 372.515C267.466 360.809 281.206 349.321 295.13 338.042C303.39 339.888 311.608 341.845 319.807 343.937C327.877 346.084 335.905 348.343 343.905 350.736C345.044 358.138 346.272 365.516 347.583 372.886ZM290.058 420.209C298.188 421.8 306.281 423.498 314.359 425.32C316.453 431.966 318.603 438.593 320.817 445.202C323.064 451.69 325.389 458.156 327.793 464.588C317.06 473.534 306.48 482.638 296.038 491.923C287.95 490.56 279.858 489.321 271.737 488.185C263.496 487.109 255.25 486.154 246.986 485.305C243.929 479.336 240.946 473.326 238.037 467.283C235.137 461.147 232.316 454.979 229.569 448.773C241.288 437.652 253.184 426.725 265.247 415.98C273.539 417.278 281.808 418.679 290.058 420.209ZM306.975 511.082C303.937 505.192 300.963 499.265 298.063 493.3C308.467 484.071 319.006 475.018 329.697 466.128C337.48 468.085 345.229 470.139 352.961 472.291C360.572 474.531 368.146 476.864 375.692 479.294C377.962 485.662 380.306 492.007 382.724 498.319C385.156 504.542 387.657 510.734 390.228 516.897C380.838 524.109 371.578 531.469 362.429 538.987C354.846 536.993 347.245 535.101 339.615 533.292C331.87 531.576 324.111 529.953 316.324 528.422C313.146 522.676 310.028 516.897 306.975 511.082ZM353.521 470.325C345.79 468.159 338.04 466.091 330.262 464.115C327.877 457.669 325.574 451.194 323.346 444.687C321.15 438.065 319.02 431.428 316.949 424.768C329.007 415.066 341.213 405.563 353.572 396.251C361.294 398.718 368.966 401.292 376.609 403.996C384.132 406.764 391.609 409.626 399.058 412.59C400.475 419.625 401.957 426.642 403.5 433.65C405.103 440.523 406.766 447.373 408.494 454.213C397.622 461.759 386.879 469.476 376.252 477.37C368.702 474.926 361.132 472.579 353.521 470.325ZM405.918 433.483C404.394 426.466 402.935 419.435 401.536 412.39C413.636 404.269 425.851 396.343 438.201 388.617C445.219 392.258 452.177 395.991 459.093 399.817C465.893 403.722 472.638 407.715 479.332 411.806C480.105 419.138 480.935 426.466 481.833 433.784C482.801 440.959 483.825 448.119 484.914 455.28C474.176 461.323 463.549 467.538 453.02 473.933C446.136 470.399 439.211 466.963 432.235 463.61C425.147 460.34 418.022 457.163 410.847 454.079C409.147 447.224 407.502 440.36 405.918 433.483ZM478.137 313.949C478.591 297.183 479.401 280.446 480.536 263.713C495.666 255.476 510.929 247.513 526.346 239.819C532.85 244.851 539.265 249.98 545.607 255.221C551.861 260.513 558.026 265.888 564.104 271.379C562.858 279.963 561.686 288.557 560.625 297.165C559.62 305.573 558.698 313.986 557.855 322.413C544.324 328.4 530.922 334.629 517.618 341.103C504.763 331.591 491.621 322.552 478.137 313.949ZM566.578 271.824C581.318 265.521 596.155 259.483 611.127 253.751C616.691 259.896 622.152 266.115 627.521 272.432C632.821 278.795 638.023 285.227 643.128 291.748C641.224 300.425 639.403 309.116 637.657 317.826C635.989 326.346 634.391 334.879 632.895 343.431C619.966 347.647 607.125 352.108 594.34 356.742C588.85 350.912 583.287 345.161 577.649 339.475C571.924 333.85 566.115 328.326 560.213 322.881C561.079 314.45 562.02 306.037 563.043 297.624C564.123 289.007 565.313 280.409 566.578 271.824ZM518.874 343.436C532.081 337.036 545.38 330.881 558.809 324.964C564.72 330.385 570.538 335.886 576.278 341.493C581.929 347.155 587.502 352.888 593.005 358.699C592.176 366.801 591.43 374.908 590.759 383.024C590.152 390.964 589.633 398.908 589.188 406.862C577.589 411.24 566.082 415.822 554.649 420.617C542.967 410.308 530.973 400.415 518.624 390.913C518.359 375.079 518.452 359.26 518.874 343.436ZM592.88 383.682C593.571 375.562 594.335 367.455 595.183 359.348C607.908 354.761 620.688 350.351 633.557 346.177C638.532 352.6 643.41 359.088 648.191 365.655C652.911 372.273 657.539 378.947 662.069 385.695C660.61 393.899 659.234 402.108 657.928 410.34C656.7 418.396 655.556 426.456 654.482 434.535C643.619 437.332 632.784 440.17 622.009 443.282C617.075 437.16 612.072 431.103 606.991 425.107C601.816 419.18 596.577 413.322 591.259 407.53C591.718 399.576 592.255 391.627 592.88 383.682ZM649.622 363.772C644.851 357.182 639.987 350.675 635.026 344.229C636.54 335.677 638.157 327.143 639.843 318.624C641.608 309.914 643.447 301.223 645.37 292.546C659.336 288.26 673.368 284.281 687.506 280.603C692.027 287.769 696.442 294.985 700.754 302.28C705.007 309.627 709.153 317.019 713.197 324.481C710.728 333.108 708.342 341.752 706.026 350.42C703.798 358.903 701.658 367.404 699.587 375.928C687.478 378.312 675.448 380.965 663.454 383.872C658.943 377.106 654.329 370.414 649.622 363.772ZM707.93 351.58C710.26 342.916 712.664 334.272 715.147 325.65C728.104 323.354 741.088 321.379 754.147 319.737C757.575 327.788 760.896 335.876 764.102 344.02C767.261 352.211 770.323 360.429 773.265 368.698C770.3 377.171 767.419 385.672 764.602 394.201C761.888 402.549 759.256 410.92 756.695 419.319C745.684 419.908 734.719 420.78 723.754 421.925C720.261 414.329 716.666 406.788 712.979 399.284C709.236 391.831 705.391 384.438 701.449 377.083C703.529 368.559 705.688 360.062 707.93 351.58ZM765.816 342.314C762.629 334.146 759.326 326.04 755.912 317.961C759.043 309.075 762.23 300.212 765.478 291.368C768.864 282.347 772.306 273.35 775.808 264.376C789.719 262.929 803.625 261.853 817.592 261.181C820.417 270.006 823.127 278.855 825.722 287.75C828.265 296.692 830.701 305.657 833.022 314.663C829.066 323.387 825.161 332.138 821.316 340.913C817.615 349.525 813.974 358.161 810.388 366.819C798.557 366.564 786.754 366.652 774.923 367.061C772 358.768 768.961 350.527 765.816 342.314ZM822.877 342.606C826.736 333.84 830.65 325.098 834.62 316.384C847.146 317.005 859.603 318.002 872.059 319.417C873.694 328.934 875.232 338.46 876.659 348.013C878.039 357.595 879.323 367.181 880.499 376.791C876.168 385.153 871.892 393.542 867.672 401.96C863.6 410.229 859.589 418.526 855.628 426.851C845.233 424.81 834.824 423.108 824.323 421.712C822.479 412.775 820.529 403.871 818.486 394.975C816.397 386.117 814.205 377.292 811.908 368.484C815.507 359.835 819.167 351.209 822.877 342.606ZM878.581 346.603C877.178 337.031 875.658 327.482 874.046 317.942C878.656 309.135 883.32 300.356 888.036 291.609C892.914 282.709 897.838 273.837 902.818 264.997C915.955 266.922 928.958 269.306 941.92 272.195C942.805 282.477 943.592 292.759 944.264 303.055C944.885 313.374 945.413 323.698 945.829 334.03C940.544 342.397 935.309 350.791 930.126 359.223C925.104 367.52 920.129 375.849 915.214 384.206C904.356 380.876 893.433 377.973 882.357 375.446C881.199 365.818 879.939 356.208 878.581 346.603ZM931.238 361.449C936.43 353.036 941.67 344.656 946.964 336.308C958.365 340.324 969.533 344.772 980.572 349.715C980.257 360.424 979.863 371.123 979.4 381.823C978.863 392.508 978.251 403.184 977.575 413.86C972.104 421.629 966.684 429.425 961.311 437.262C956.095 444.989 950.93 452.743 945.82 460.539C936.699 455.521 927.453 450.893 917.97 446.589C917.892 436.553 917.72 426.517 917.47 416.485C917.174 406.449 916.785 396.418 916.307 386.391C921.232 378.043 926.207 369.732 931.238 361.449ZM1018.74 263.597C1018.52 274.681 1018.2 285.765 1017.79 296.845C1011.6 305.054 1005.45 313.3 999.352 321.578C993.418 329.754 987.53 337.959 981.689 346.205C970.59 341.265 959.361 336.827 947.896 332.82C947.502 322.469 947.001 312.122 946.404 301.779C945.755 291.46 944.996 281.151 944.134 270.85C949.739 262.025 955.391 253.231 961.093 244.471C966.962 235.58 972.883 226.722 978.849 217.896C992.403 221.504 1005.71 225.637 1018.91 230.381C1018.95 241.456 1018.89 252.526 1018.74 263.597ZM959.703 242.235C954.01 251.015 948.368 259.822 942.772 268.661C929.741 265.786 916.673 263.425 903.466 261.519C901.868 251.719 900.15 241.943 898.32 232.181C896.439 222.469 894.429 212.785 892.307 203.12C897.537 193.808 902.813 184.532 908.145 175.275C913.639 165.87 919.184 156.502 924.78 147.157C940.187 148.335 955.502 150.05 970.784 152.365C972.16 162.855 973.424 173.355 974.555 183.878C975.629 194.443 976.593 205.017 977.431 215.605C971.474 224.454 965.563 233.326 959.703 242.235ZM896.078 233.744C897.931 243.478 899.673 253.231 901.294 263.008C896.328 271.866 891.408 280.747 886.544 289.661C881.838 298.426 877.187 307.215 872.587 316.031C860.061 314.64 847.54 313.661 834.949 313.068C832.652 304.043 830.233 295.055 827.709 286.085C825.138 277.167 822.442 268.29 819.639 259.446C823.818 250.286 828.052 241.155 832.341 232.046C836.784 222.771 841.277 213.523 845.826 204.298C860.571 203.992 875.265 204.131 890 204.758C892.145 214.399 894.174 224.055 896.078 233.744ZM830.479 230.437C826.208 239.555 821.988 248.696 817.823 257.865C803.787 258.569 789.816 259.678 775.84 261.157C772.371 252.907 768.781 244.716 765.079 236.568C761.327 228.47 757.45 220.442 753.461 212.461C757.112 203.06 760.818 193.683 764.579 184.324C768.489 174.784 772.449 165.272 776.466 155.778C792.619 153.121 808.804 150.895 825.078 149.132C828.496 157.939 831.79 166.779 834.954 175.679C838.067 184.634 841.059 193.622 843.922 202.661C839.387 211.895 834.908 221.152 830.479 230.437ZM763.055 238.479C766.775 246.604 770.383 254.767 773.867 262.999C770.383 271.982 766.955 280.984 763.583 290.009C760.35 298.858 757.176 307.725 754.063 316.62C740.94 318.299 727.895 320.312 714.874 322.645C710.844 315.159 706.711 307.744 702.477 300.374C698.179 293.06 693.778 285.816 689.275 278.628C691.855 269.612 694.5 260.615 697.201 251.636C700.032 242.467 702.922 233.321 705.868 224.19C720.965 220.572 736.127 217.317 751.386 214.446C755.398 222.4 759.289 230.404 763.055 238.479ZM694.996 250.63C692.314 259.613 689.688 268.61 687.121 277.631C672.918 281.35 658.827 285.376 644.795 289.703C639.704 283.159 634.516 276.703 629.226 270.317C623.871 263.977 618.419 257.739 612.869 251.566C614.833 242.523 616.871 233.498 618.965 224.482C621.175 215.271 623.449 206.079 625.779 196.897C641.835 191.062 657.988 185.571 674.28 180.437C679.441 187.366 684.495 194.374 689.368 201.506C694.25 208.644 698.98 215.879 703.608 223.179C700.68 232.31 697.808 241.461 694.996 250.63ZM616.478 223.87C614.402 232.886 612.383 241.911 610.437 250.954C595.4 256.738 580.503 262.822 565.702 269.181C559.634 263.666 553.482 258.268 547.238 252.953C540.91 247.685 534.503 242.537 528.009 237.477C529.278 228.531 530.626 219.598 532.062 210.675C533.591 201.525 535.207 192.389 536.875 183.262C553.603 175.201 570.474 167.465 587.507 160.068C593.691 165.893 599.778 171.802 605.772 177.821C611.692 183.888 617.511 190.033 623.236 196.28C620.92 205.467 618.669 214.659 616.478 223.87ZM529.343 210.471C527.925 219.39 526.6 228.317 525.354 237.259C509.827 245.027 494.456 253.074 479.221 261.403C465.148 252.772 450.815 244.67 436.167 237.05C437.349 219.213 438.979 201.423 440.902 183.651C457.963 173.439 475.19 163.537 492.604 153.946C499.714 158.561 506.746 163.277 513.709 168.115C520.578 172.998 527.369 177.974 534.082 183.076C532.442 192.194 530.853 201.326 529.343 210.471ZM433.138 237.713C417.346 247.494 401.73 257.54 386.272 267.845C378.434 264.775 370.545 261.858 362.652 258.945C354.675 256.084 346.665 253.357 338.61 250.736C338.517 242.217 338.494 233.702 338.559 225.178C338.679 216.454 338.883 207.735 339.147 199.016C356.356 186.675 373.756 174.617 391.359 162.851C407.062 169.506 422.507 176.667 437.724 184.375C435.848 202.128 434.264 219.895 433.138 237.713ZM361.207 261.519C369.123 264.385 377.017 267.284 384.859 270.335C384.994 278.498 385.216 286.656 385.522 294.818C385.874 302.786 386.314 310.744 386.833 318.703C372.718 328.386 358.765 338.283 344.965 348.403C336.965 345.991 328.942 343.714 320.877 341.548C312.682 339.438 304.465 337.462 296.21 335.598C294.982 328.015 293.838 320.428 292.786 312.817C291.777 304.938 291.008 297.04 290.29 289.128C305.725 276.958 321.34 265.039 337.155 253.371C345.211 255.972 353.225 258.681 361.207 261.519ZM335.613 251.344C319.751 263.077 304.085 275.057 288.603 287.286C280.182 285.334 271.714 283.618 263.227 281.976C254.616 280.376 245.986 278.925 237.328 277.594C236.503 269.459 235.757 261.32 235.1 253.171C234.484 244.823 233.942 236.475 233.488 228.118C250.516 213.801 267.749 199.753 285.208 185.975C293.81 187.969 302.371 190.088 310.904 192.361C319.316 194.67 327.687 197.101 336.02 199.684C335.779 208.394 335.594 217.103 335.502 225.818C335.46 234.328 335.497 242.834 335.613 251.344ZM284.383 157.016C284.064 166 283.814 174.978 283.628 183.966C266.118 197.81 248.835 211.923 231.769 226.309C222.815 225.043 213.846 223.925 204.86 222.928C195.734 221.987 186.603 221.194 177.454 220.526C176.889 211.946 176.403 203.362 176.018 194.777C175.68 185.97 175.412 177.158 175.208 168.346C193.793 151.734 212.623 135.414 231.713 119.386C240.844 120.754 249.946 122.252 259.03 123.903C267.985 125.605 276.902 127.432 285.796 129.412C285.254 138.609 284.786 147.81 284.383 157.016ZM175.958 223.55C185.107 224.199 194.238 224.974 203.363 225.892C212.355 226.866 221.318 227.965 230.277 229.212C230.754 237.556 231.315 245.89 231.959 254.224C232.64 262.363 233.404 270.488 234.252 278.609C218.692 292.082 203.34 305.787 188.188 319.723C179.219 319.088 170.256 318.591 161.274 318.211C152.157 317.891 143.045 317.71 133.924 317.65C132.358 310.007 130.876 302.35 129.482 294.67C128.115 286.809 126.827 278.943 125.632 271.054C142.179 254.971 158.953 239.137 175.958 223.55ZM236.035 280.335C244.693 281.647 253.323 283.08 261.935 284.661C270.421 286.285 278.894 287.982 287.316 289.911C288.057 297.819 288.854 305.708 289.859 313.583C290.934 321.179 292.101 328.753 293.352 336.322C279.385 347.661 265.594 359.209 251.985 370.979C243.382 369.792 234.771 368.744 226.141 367.817C217.372 366.94 208.598 366.198 199.806 365.581C197.994 358.314 196.29 351.028 194.664 343.714C193.061 336.243 191.537 328.757 190.105 321.253C205.207 307.382 220.517 293.742 236.035 280.335ZM225.233 370.261C233.867 371.174 242.479 372.204 251.077 373.377C252.934 380.352 254.875 387.295 256.9 394.219C258.961 401.004 261.087 407.766 263.278 414.514C251.169 425.32 239.236 436.302 227.475 447.479C218.905 446.747 210.312 446.209 201.723 445.787C193.001 445.397 184.283 445.137 175.551 444.989C172.641 438.765 169.816 432.499 167.073 426.201C164.34 419.787 161.691 413.35 159.12 406.871C172.178 393.732 185.436 380.802 198.893 368.072C207.695 368.679 216.464 369.398 225.233 370.261ZM201.177 448.017C209.765 448.43 218.354 448.95 226.924 449.673C229.689 455.864 232.533 462.019 235.452 468.136C238.384 474.165 241.386 480.157 244.466 486.112C234.169 496.283 224.051 506.611 214.101 517.125C205.615 516.846 197.137 516.684 188.646 516.619C180.044 516.577 171.437 516.721 162.839 516.967C159.096 511.541 155.423 506.068 151.814 500.554C148.22 494.97 144.694 489.344 141.239 483.672C152.296 471.345 163.553 459.213 175.013 447.257C183.736 447.391 192.454 447.637 201.177 448.017ZM188.419 518.632C196.906 518.683 205.378 518.836 213.86 519.105C217.45 524.564 221.101 529.981 224.816 535.36C228.545 540.68 232.329 545.958 236.174 551.194C227.628 560.687 219.257 570.315 211.062 580.11C202.743 580.152 194.437 580.3 186.122 580.541C177.705 580.852 169.302 581.27 160.894 581.775C156.424 577.068 152 572.314 147.622 567.519C143.268 562.681 138.964 557.798 134.716 552.868C143.814 541.403 153.116 530.129 162.626 519.008C171.224 518.757 179.822 518.604 188.419 518.632ZM160.996 583.616C169.394 583.101 177.793 582.675 186.2 582.359C194.506 582.109 202.812 581.956 211.122 581.905C215.449 586.682 219.804 591.426 224.19 596.147C228.624 600.804 233.08 605.432 237.569 610.038C230.676 618.831 223.977 627.749 217.469 636.83C209.39 637.117 201.325 637.502 193.255 637.975C185.103 638.513 176.968 639.153 168.829 639.872C163.743 635.796 158.679 631.687 153.653 627.536C148.65 623.357 143.68 619.137 138.746 614.875C145.931 604.287 153.352 593.884 160.996 583.616ZM169.204 641.523C177.334 640.795 185.459 640.151 193.603 639.608C201.663 639.13 209.724 638.736 217.793 638.444C222.713 642.627 227.651 646.773 232.621 650.892C237.61 654.977 242.623 659.026 247.663 663.052C242.326 671.173 237.193 679.395 232.269 687.776C224.505 688.244 216.751 688.81 209.001 689.455C201.191 690.159 193.39 690.957 185.598 691.834C180.002 688.318 174.434 684.766 168.894 681.167C163.354 677.573 157.841 673.932 152.356 670.245C157.716 660.51 163.34 650.957 169.204 641.523ZM166.976 682.201C172.535 685.781 178.122 689.32 183.731 692.822C179.525 701.522 175.588 710.301 171.928 719.248C164.271 720.477 156.637 721.784 149.002 723.167C141.341 724.604 133.702 726.121 126.072 727.707C119.92 724.711 113.783 721.682 107.663 718.617C101.544 715.551 95.4431 712.453 89.3654 709.313C93.2149 699.161 97.4118 689.195 101.924 679.326C110.003 677.8 118.091 676.348 126.202 674.985C134.253 673.686 142.313 672.462 150.388 671.33C155.886 674.999 161.417 678.621 166.976 682.201ZM126.943 729.121C134.559 727.535 142.184 726.014 149.827 724.576C157.443 723.194 165.068 721.882 172.706 720.653C178.626 723.811 184.565 726.937 190.522 730.035C196.466 733.124 202.423 736.185 208.394 739.222C205.735 747.227 203.368 755.255 201.288 763.432C194.14 764.716 187.011 766.075 179.886 767.499C172.762 768.969 165.66 770.518 158.568 772.123C152.111 769.544 145.663 766.947 139.219 764.336C132.761 761.706 126.313 759.058 119.87 756.396C121.857 747.181 124.219 738.137 126.943 729.121ZM137.746 765.458C144.203 768.055 150.67 770.634 157.142 773.203C156.104 781.509 155.432 789.751 155.154 798.117C148.456 799.94 141.771 801.804 135.11 803.766C128.49 805.737 121.885 807.755 115.307 809.86C108.358 807.736 101.41 805.607 94.4656 803.465C87.4939 801.308 80.5222 799.142 73.5598 796.963C73.4301 787.784 73.8146 778.732 74.6577 769.595C81.898 767.439 89.157 765.342 96.4344 763.316C103.726 761.331 111.026 759.406 118.35 757.555C124.808 760.213 131.27 762.843 137.746 765.458ZM275.494 818.129C275.369 824.97 275.647 831.82 276.351 838.624C264.548 841.313 252.814 844.231 241.126 847.38C234.511 845.432 227.896 843.484 221.281 841.531C214.592 839.556 207.903 837.58 201.214 835.604C199.972 828.036 199.139 820.536 198.666 812.884C205.124 811.261 211.6 809.712 218.099 808.255C224.621 806.795 231.157 805.408 237.717 804.119C250.303 808.793 262.898 813.464 275.494 818.129ZM236.577 802.996C230.004 804.286 223.445 805.672 216.908 807.133C210.391 808.589 203.896 810.138 197.415 811.762C190.8 809.531 184.19 807.291 177.584 805.042C170.932 802.774 164.285 800.496 157.637 798.215C157.924 789.871 158.605 781.658 159.648 773.375C166.721 771.766 173.809 770.221 180.915 768.746C188.021 767.323 195.136 765.959 202.265 764.674C208.464 767.401 214.666 770.11 220.878 772.795C227.058 775.471 233.247 778.129 239.44 780.767C238.176 788.165 237.217 795.52 236.577 802.996ZM289.474 753.609C286.862 760.538 284.485 767.499 282.336 774.585C268.462 776.046 254.653 777.813 240.853 779.877C234.673 777.224 228.499 774.553 222.333 771.863C216.135 769.159 209.941 766.441 203.762 763.701C205.846 755.557 208.213 747.561 210.872 739.589C218.242 738.606 225.613 737.697 233.001 736.871C240.353 736.101 247.709 735.406 255.074 734.793C266.512 741.124 277.981 747.389 289.474 753.609ZM254.315 733.495C246.935 734.102 239.57 734.793 232.204 735.563C224.802 736.389 217.418 737.293 210.039 738.276C204.081 735.229 198.138 732.15 192.213 729.047C186.274 725.935 180.35 722.795 174.448 719.619C178.103 710.709 182.036 701.967 186.228 693.299C194.011 692.418 201.798 691.62 209.598 690.911C217.339 690.262 225.08 689.696 232.834 689.218C238.213 692.877 243.619 696.499 249.048 700.089C254.468 703.669 259.911 707.217 265.372 710.728C261.472 718.227 257.789 725.791 254.315 733.495ZM325.75 689.097C320.942 695.901 316.3 702.784 311.812 709.796C296.914 709.471 282.039 709.536 267.146 709.967C261.699 706.438 256.27 702.881 250.868 699.287C245.453 695.683 240.066 692.047 234.701 688.374C239.616 680.035 244.73 671.854 250.053 663.775C257.821 663.715 265.581 663.747 273.349 663.873C281.034 664.077 288.715 664.36 296.395 664.721C306.091 672.953 315.879 681.074 325.75 689.097ZM296.015 663.251C288.326 662.88 280.64 662.593 272.946 662.384C265.173 662.249 257.404 662.212 249.627 662.268C244.605 658.229 239.612 654.161 234.636 650.061C229.684 645.929 224.76 641.764 219.859 637.567C226.344 628.533 233.024 619.656 239.894 610.909C247.899 611.081 255.89 611.345 263.885 611.716C271.783 612.166 279.672 612.695 287.557 613.316C291.883 617.996 296.238 622.643 300.629 627.258C305.044 631.83 309.486 636.371 313.961 640.883C307.823 648.225 301.843 655.668 296.015 663.251ZM380.625 627.327C373.987 633.704 367.469 640.192 361.072 646.815C346.091 644.223 331.068 642.075 315.962 640.35C311.506 635.823 307.077 631.269 302.681 626.682C298.308 622.049 293.968 617.393 289.66 612.7C296.909 604.574 304.312 596.607 311.867 588.764C319.585 589.919 327.284 591.162 334.973 592.493C342.557 593.912 350.117 595.419 357.663 597.019C365.158 607.25 372.811 617.342 380.625 627.327ZM357.677 595.405C350.126 593.796 342.566 592.275 334.978 590.846C327.288 589.502 319.585 588.249 311.867 587.09C308.004 581.974 304.177 576.836 300.384 571.669C296.636 566.429 292.93 561.165 289.252 555.878C298.044 547.187 306.98 538.658 316.059 530.268C323.842 531.785 331.601 533.399 339.346 535.101C346.976 536.895 354.578 538.778 362.161 540.759C365.214 546.491 368.326 552.191 371.5 557.858C374.705 563.451 377.948 569.021 381.228 574.573C373.26 581.39 365.413 588.324 357.677 595.405ZM450.412 571.438C442.328 577.049 434.342 582.786 426.444 588.657C412.223 583.417 397.872 578.649 383.345 574.327C380.083 568.761 376.859 563.182 373.672 557.575C370.518 551.894 367.423 546.18 364.389 540.439C373.496 532.972 382.719 525.667 392.067 518.502C399.336 521.076 406.567 523.743 413.765 526.502C420.857 529.341 427.903 532.272 434.917 535.295C439.836 547.456 444.997 559.495 450.412 571.438ZM435.315 533.575C428.302 530.537 421.26 527.597 414.168 524.744C406.97 521.971 399.743 519.29 392.475 516.703C389.923 510.525 387.44 504.32 385.026 498.087C382.627 491.761 380.301 485.407 378.054 479.03C388.635 471.188 399.331 463.526 410.161 456.031C417.337 459.097 424.466 462.255 431.558 465.511C438.539 468.846 445.469 472.268 452.358 475.784C453.997 482.499 455.716 489.196 457.509 495.87C459.32 502.441 461.205 508.99 463.165 515.515C453.78 521.387 444.501 527.402 435.315 533.575ZM531.353 524.837C522.223 529.299 513.176 533.909 504.198 538.676C491.478 530.56 478.521 522.889 465.286 515.641C463.345 509.106 461.479 502.544 459.681 495.967C457.907 489.28 456.226 482.573 454.586 475.853C465.073 469.513 475.649 463.35 486.336 457.353C492.798 461.499 499.195 465.724 505.546 470.042C511.795 474.429 517.975 478.9 524.108 483.45C526.221 497.303 528.629 511.086 531.353 524.837ZM524.859 481.683C518.735 477.115 512.56 472.63 506.32 468.224C499.978 463.892 493.586 459.649 487.133 455.484C486.063 448.319 485.053 441.149 484.108 433.965C483.228 426.637 482.417 419.305 481.662 411.963C493.516 405.508 505.468 399.261 517.54 393.222C529.903 402.688 541.91 412.538 553.612 422.811C553.936 437.805 554.585 452.771 555.567 467.737C545.241 472.208 535.013 476.855 524.859 481.683ZM619.878 468.02C619.683 475.538 619.544 483.056 619.47 490.578C609.71 493.514 600.019 496.626 590.37 499.923C579.799 488.904 568.912 478.246 557.66 467.927C556.72 452.947 556.123 437.963 555.84 422.955C567.185 418.224 578.594 413.698 590.106 409.385C595.433 415.159 600.686 420.998 605.87 426.906C610.961 432.884 615.977 438.923 620.92 445.026C620.512 452.683 620.16 460.349 619.878 468.02ZM675.702 523.979C666.716 525.408 657.78 527.022 648.862 528.821C640.024 516.086 630.843 503.633 621.277 491.436C621.365 483.914 621.518 476.391 621.731 468.869C622.032 461.198 622.398 453.532 622.824 445.865C633.539 442.791 644.313 440.003 655.116 437.248C659.526 443.913 663.862 450.624 668.119 457.39C672.293 464.222 676.388 471.095 680.409 478.014C678.463 493.305 676.884 508.605 675.702 523.979ZM711.728 472.134C701.625 473.33 691.578 474.749 681.535 476.391C677.528 469.453 673.446 462.561 669.287 455.711C665.039 448.931 660.721 442.202 656.321 435.514C657.409 427.435 658.572 419.375 659.813 411.319C661.134 403.091 662.528 394.878 664.001 386.674C675.934 383.803 687.904 381.192 699.948 378.845C703.904 386.177 707.763 393.547 711.524 400.981C715.23 408.467 718.839 415.984 722.346 423.562C720.377 431.711 718.492 439.869 716.676 448.05C714.952 456.069 713.303 464.092 711.728 472.134ZM759.743 519.133C750.724 518.785 741.723 518.669 732.699 518.771C726.603 503.485 720.155 488.375 713.303 473.414C714.897 465.372 716.555 457.349 718.302 449.339C720.131 441.163 722.035 433 724.018 424.861C734.923 423.753 745.827 422.909 756.778 422.352C759.692 430.445 762.513 438.566 765.237 446.723C767.91 454.923 770.49 463.146 772.982 471.401C768.257 487.23 763.842 503.133 759.743 519.133ZM774.349 469.94C771.875 461.666 769.309 453.425 766.659 445.207C763.954 437.026 761.146 428.891 758.251 420.775C760.827 412.385 763.472 404.019 766.2 395.676C769.031 387.156 771.926 378.66 774.904 370.191C786.671 369.815 798.409 369.755 810.18 370.038C812.492 378.822 814.706 387.629 816.814 396.464C818.875 405.336 820.844 414.222 822.706 423.136C819.343 431.363 816.035 439.614 812.807 447.897C809.684 456.013 806.632 464.147 803.672 472.324C793.911 471.253 784.155 470.464 774.349 469.94ZM840.411 533.399C831.994 530.839 823.535 528.557 814.974 526.521C811.963 508.962 808.623 491.473 804.922 474.044C807.892 465.877 810.954 457.747 814.09 449.641C817.332 441.367 820.649 433.13 824.021 424.907C834.463 426.322 844.812 428.043 855.146 430.102C856.374 439.433 857.518 448.773 858.565 458.128C859.57 467.491 860.497 476.86 861.331 486.242C854.067 501.839 847.091 517.547 840.411 533.399ZM862.873 485.041C862.058 475.64 861.155 466.253 860.172 456.871C859.144 447.498 858.023 438.139 856.819 428.785C860.784 420.474 864.809 412.191 868.891 403.931C873.12 395.523 877.409 387.147 881.75 378.799C892.761 381.34 903.624 384.257 914.417 387.601C914.918 397.61 915.33 407.618 915.65 417.635C915.923 427.648 916.117 437.661 916.219 447.679C911.629 455.572 907.089 463.494 902.605 471.452C898.274 479.276 893.998 487.128 889.773 495.012C880.907 491.367 871.966 488.055 862.873 485.041ZM940.576 525.371C931.219 539.878 922.112 554.533 913.283 569.364C905.959 564.37 898.505 559.676 890.839 555.228C891.047 535.87 890.987 516.517 890.626 497.159C894.85 489.289 899.135 481.451 903.476 473.646C907.965 465.706 912.509 457.798 917.109 449.919C926.531 454.227 935.726 458.86 944.787 463.879C944.231 474.16 943.62 484.433 942.944 494.706C942.212 504.937 941.42 515.154 940.576 525.371ZM942.202 524.522C943.069 514.291 943.879 504.055 944.639 493.811C945.334 483.519 945.973 473.228 946.552 462.928C951.671 455.155 956.836 447.414 962.057 439.711C967.43 431.897 972.859 424.114 978.33 416.369C987.933 422.282 997.207 428.567 1006.25 435.31C1004.87 446.204 1003.44 457.093 1001.94 467.974C1000.39 478.784 998.782 489.586 997.124 500.378C991.607 507.441 986.131 514.537 980.707 521.67C975.435 528.719 970.21 535.801 965.035 542.924C957.656 536.478 950.077 530.37 942.202 524.522ZM1005.63 591.222C994.872 603.651 984.334 616.257 974.022 629.066C968.269 621.493 962.279 614.184 955.974 607.06C959.338 586.561 962.506 566.034 965.448 545.471C970.622 538.37 975.847 531.307 981.119 524.281C986.543 517.166 992.014 510.094 997.531 503.054C1005.33 510.627 1012.73 518.488 1019.83 526.716C1017.56 537.549 1015.25 548.379 1012.89 559.194C1010.52 569.879 1008.09 580.555 1005.63 591.222ZM1007.22 590.856C1009.7 580.175 1012.15 569.485 1014.56 558.79C1016.94 547.956 1019.28 537.118 1021.57 526.266C1027.46 519.573 1033.4 512.923 1039.37 506.309C1045.47 499.631 1051.63 493.013 1057.85 486.441C1065.28 496.181 1072.21 506.189 1078.72 516.568C1075.58 527.912 1072.4 539.242 1069.18 550.558C1065.95 561.712 1062.69 572.857 1059.38 583.992C1053.39 589.641 1047.44 595.34 1041.55 601.096C1035.76 606.81 1030.02 612.574 1024.32 618.39C1018.98 608.966 1013.3 599.816 1007.22 590.856ZM1018.4 714.058C1014.63 703.799 1010.55 693.712 1006.09 683.736C1012.29 662.954 1018.35 642.131 1024.26 621.261C1029.94 615.473 1035.68 609.736 1041.46 604.05C1047.35 598.323 1053.28 592.655 1059.27 587.039C1064.72 598.23 1069.68 609.574 1074.22 621.168C1070.45 632.067 1066.65 642.956 1062.83 653.837C1059.04 664.48 1055.23 675.119 1051.39 685.744C1040.2 694.969 1029.21 704.397 1018.4 714.058ZM1096.89 700.678C1085.27 707.908 1073.84 715.394 1062.56 723.148C1059.72 710.635 1056.49 698.276 1052.79 685.99C1056.65 675.351 1060.49 664.708 1064.3 654.05C1068.15 643.16 1071.97 632.262 1075.76 621.349C1081.86 616.354 1088 611.41 1094.18 606.508C1100.45 601.639 1106.75 596.815 1113.09 592.038C1117.49 605.956 1121.28 619.972 1124.56 634.196C1115.47 656.42 1106.24 678.574 1096.89 700.678ZM1164.82 608.405C1151.9 615.774 1139.16 623.417 1126.58 631.348C1123.29 617.068 1119.48 603.002 1115.05 589.033C1119.26 577.448 1123.43 565.849 1127.57 554.241C1131.73 542.428 1135.84 530.607 1139.92 518.766C1146.74 513.581 1153.6 508.447 1160.5 503.36C1167.48 498.319 1174.49 493.328 1181.53 488.389C1186.8 503.958 1191.27 519.694 1195.06 535.685C1185.17 560.005 1175.08 584.238 1164.82 608.405ZM1239.32 509.37C1225.13 516.805 1211.12 524.559 1197.28 532.629C1193.47 516.582 1188.98 500.795 1183.68 485.175C1188.17 472.676 1192.6 460.159 1196.98 447.618C1201.36 434.92 1205.69 422.208 1209.96 409.473C1217.49 404.112 1225.06 398.806 1232.67 393.556C1240.35 388.362 1248.05 383.223 1255.79 378.145C1262.07 395.337 1267.34 412.78 1271.76 430.542C1261.19 456.922 1250.37 483.19 1239.32 509.37ZM1319.93 403.861C1304.49 411.323 1289.24 419.138 1274.15 427.291C1269.72 409.478 1264.42 391.984 1258.11 374.741C1262.78 361.356 1267.39 347.953 1271.93 334.527C1276.45 320.98 1280.9 307.405 1285.28 293.812C1293.52 288.293 1301.79 282.839 1310.1 277.44C1318.46 272.112 1326.86 266.843 1335.3 261.64C1342.75 280.423 1348.97 299.535 1354.15 319.074C1343.05 347.457 1331.63 375.715 1319.93 403.861ZM1436.08 90.1955C1440.62 75.0579 1445.03 59.8924 1449.31 44.6806C1458.94 38.888 1468.62 33.1696 1478.33 27.5255C1488.08 21.9648 1497.85 16.483 1507.68 11.08C1518.09 32.8728 1526.77 55.25 1533.96 78.3043C1522.29 110.555 1510.14 142.63 1497.57 174.543C1479.66 181.907 1461.95 189.717 1444.42 197.935C1438.3 176.578 1430.91 155.773 1422.04 135.404C1426.84 120.378 1431.52 105.305 1436.08 90.1955ZM1365.27 172.103C1374.2 166.44 1383.17 160.847 1392.19 155.319C1401.23 149.87 1410.32 144.485 1419.45 139.175C1428.28 159.498 1435.63 180.256 1441.71 201.557C1430.24 231.907 1418.38 262.099 1406.17 292.156C1389.49 299.59 1373.01 307.424 1356.7 315.628C1351.5 296.038 1345.25 276.875 1337.76 258.045C1342.53 243.812 1347.22 229.56 1351.83 215.276C1356.4 200.913 1360.88 186.522 1365.27 172.103ZM1279.41 163.435C1288.09 156.571 1296.81 149.768 1305.58 143.015C1314.44 136.286 1323.34 129.617 1332.29 123.003C1343.55 138.526 1353.66 154.67 1362.77 171.542C1358.42 185.937 1353.98 200.301 1349.45 214.641C1344.88 228.902 1340.22 243.135 1335.49 257.34C1327.03 262.59 1318.62 267.901 1310.24 273.276C1301.91 278.716 1293.62 284.216 1285.37 289.777C1277.63 274.148 1269.03 259.089 1259.46 244.508C1262.99 231.063 1266.44 217.595 1269.79 204.108C1273.09 190.571 1276.29 177.014 1279.41 163.435ZM1276.78 163.468C1273.7 177.024 1270.53 190.552 1267.26 204.066C1263.94 217.53 1260.54 230.975 1257.05 244.396C1248.82 250.82 1240.64 257.299 1232.49 263.829C1224.45 270.373 1216.45 276.963 1208.49 283.609C1199.03 271.36 1188.95 259.761 1178.13 248.696C1180.52 236.039 1182.83 223.369 1185.05 210.68C1187.19 197.968 1189.25 185.246 1191.21 172.502C1199.35 164.766 1207.55 157.081 1215.79 149.443C1224.15 141.777 1232.56 134.162 1241.02 126.597C1253.72 138.155 1265.61 150.412 1276.78 163.468ZM1156.11 68.0966C1164.23 59.3683 1172.4 50.6911 1180.63 42.0509C1189 33.3505 1197.42 24.6964 1205.89 16.0888C1221.59 24.4692 1236.72 33.6659 1251.35 43.8133C1249.76 57.0541 1248.06 70.2717 1246.25 83.4847C1244.36 96.707 1242.35 109.911 1240.24 123.105C1231.79 130.702 1223.37 138.354 1215 146.053C1206.76 153.724 1198.57 161.441 1190.42 169.204C1177.92 159.4 1164.97 150.394 1151.46 142.05C1152.49 129.723 1153.42 117.391 1154.24 105.05C1154.98 92.737 1155.6 80.4191 1156.11 68.0966ZM1083.59 77.7246C1091.08 68.5743 1098.62 59.4657 1106.22 50.3943C1122.21 55.8529 1137.84 62.0304 1153.21 69.0427C1152.73 81.3374 1152.14 93.6275 1151.44 105.913C1150.64 118.226 1149.75 130.535 1148.75 142.834C1141 151.085 1133.29 159.377 1125.63 167.716C1118.13 175.98 1110.67 184.291 1103.26 192.644C1090.14 185.608 1076.75 179.287 1063 173.582C1063.05 162.127 1062.99 150.677 1062.82 139.221C1062.57 127.808 1062.21 116.399 1061.74 104.995C1068.96 95.8536 1076.25 86.7729 1083.59 77.7246ZM1101.75 196.386C1100.86 208.273 1099.87 220.15 1098.79 232.018C1097.63 243.886 1096.38 255.745 1095.05 267.595C1088.02 275.446 1081.04 283.34 1074.12 291.294C1067.33 299.15 1060.6 307.048 1053.93 315.006C1042.91 308.054 1031.66 301.701 1020.04 295.834C1020.47 284.731 1020.81 273.628 1021.07 262.516C1021.24 251.423 1021.33 240.329 1021.31 229.231C1027.85 220.54 1034.45 211.904 1041.11 203.315C1047.9 194.596 1054.76 185.933 1061.68 177.311C1075.37 183.048 1088.67 189.36 1101.75 196.386ZM1058.99 106.251C1059.49 117.633 1059.88 129.014 1060.16 140.399C1060.35 151.827 1060.44 163.254 1060.42 174.682C1053.5 183.322 1046.65 192.008 1039.87 200.75C1033.21 209.363 1026.62 218.022 1020.09 226.731C1006.82 221.991 993.446 217.873 979.826 214.279C978.993 203.668 978.071 193.07 977.024 182.478C975.917 171.931 974.68 161.404 973.327 150.885C979.567 141.563 985.872 132.288 992.241 123.054C998.745 113.672 1005.32 104.336 1011.95 95.042C1027.81 98.1168 1043.46 101.827 1058.99 106.251ZM928.463 55.2454C934.531 45.3206 940.669 35.4421 946.867 25.6008C964.688 25.9115 982.453 26.8437 1000.2 28.4577C1002.16 39.1013 1004 49.7635 1005.71 60.4536C1007.34 71.2085 1008.84 81.9728 1010.22 92.7602C1003.6 102.073 997.036 111.423 990.541 120.828C984.185 130.08 977.885 139.37 971.66 148.71C956.308 146.414 940.924 144.722 925.443 143.567C923.302 133.647 921.028 123.768 918.628 113.908C916.173 104.109 913.579 94.351 910.86 84.621C916.678 74.7982 922.547 65.0079 928.463 55.2454ZM908.224 86.439C910.966 96.1412 913.584 105.871 916.062 115.643C918.485 125.475 920.782 135.33 922.941 145.223C917.359 154.577 911.828 163.964 906.348 173.383C901.03 182.649 895.768 191.943 890.551 201.265C875.746 200.662 860.983 200.551 846.169 200.885C843.325 191.823 840.351 182.807 837.256 173.828C834.111 164.901 830.836 156.033 827.44 147.203C832.174 137.524 836.96 127.873 841.8 118.245C846.799 108.45 851.848 98.678 856.948 88.9341C874.014 87.5659 891.098 86.7172 908.224 86.439ZM762.893 74.7657C767.294 64.6925 771.745 54.6471 776.248 44.6203C794.726 40.6272 813.284 37.1256 831.952 34.1436C836.042 42.8765 839.998 51.6557 843.816 60.5092C847.577 69.423 851.209 78.3739 854.702 87.399C849.615 97.1522 844.585 106.929 839.605 116.737C834.782 126.375 830.011 136.035 825.295 145.723C808.952 147.523 792.693 149.786 776.475 152.481C772.394 144.318 768.178 136.235 763.847 128.202C759.46 120.22 754.948 112.327 750.311 104.489C754.448 94.555 758.645 84.6488 762.893 74.7657ZM695.686 120.661C712.993 115.583 730.401 110.917 747.935 106.687C752.586 114.497 757.121 122.368 761.522 130.321C765.871 138.326 770.101 146.387 774.2 154.521C770.203 164.019 766.256 173.541 762.365 183.085C758.622 192.449 754.93 201.831 751.298 211.236C735.974 214.149 720.748 217.442 705.581 221.106C700.967 213.778 696.252 206.52 691.383 199.359C686.482 192.226 681.488 185.172 676.337 178.216C679.38 168.68 682.484 159.168 685.639 149.67C688.932 139.987 692.282 130.317 695.686 120.661ZM604.971 99.7447C623.116 92.2501 641.404 85.145 659.86 78.462C665.599 85.2007 671.32 91.9486 676.898 98.8218C682.415 105.737 687.816 112.73 693.097 119.826C689.715 129.482 686.385 139.156 683.11 148.849C679.973 158.347 676.888 167.864 673.863 177.399C657.506 182.584 641.289 188.122 625.173 194.003C619.461 187.728 613.652 181.559 607.746 175.47C601.761 169.427 595.688 163.495 589.513 157.643C591.894 148.084 594.335 138.54 596.827 129.009C599.463 119.233 602.187 109.484 604.971 99.7447ZM505.82 93.7666C524.622 83.7583 543.601 74.1118 562.784 64.8455C569.58 70.3459 576.278 75.9483 582.874 81.6899C589.397 87.4639 595.808 93.3353 602.117 99.3412C599.352 109.081 596.642 118.834 594.029 128.615C591.555 138.145 589.137 147.69 586.775 157.248C569.681 164.697 552.75 172.483 535.962 180.599C529.259 175.475 522.478 170.475 515.617 165.564C508.664 160.699 501.637 155.964 494.535 151.321C496.221 141.823 497.977 132.339 499.798 122.869C501.743 113.152 503.749 103.455 505.82 93.7666ZM400.016 103.116C418.935 90.8634 438.062 78.9722 457.398 67.387C465.157 71.5146 472.837 75.7628 480.444 80.1594C487.953 84.5885 495.378 89.1335 502.725 93.8269C500.678 103.511 498.69 113.203 496.768 122.915C494.966 132.381 493.238 141.86 491.58 151.349C474.051 161.028 456.712 171.022 439.544 181.328C424.341 173.573 408.906 166.361 393.211 159.66C395.157 140.775 397.441 121.932 400.016 103.116ZM396.514 104.164C393.994 122.957 391.766 141.781 389.867 160.648C372.264 172.442 354.869 184.523 337.665 196.887C329.336 194.285 320.97 191.832 312.562 189.499C304.029 187.208 295.473 185.066 286.871 183.048C287.079 174.051 287.353 165.058 287.695 156.066C288.122 146.85 288.613 137.64 289.169 128.429C308.087 113.895 327.237 99.6751 346.628 85.7804C363.467 91.3596 380.088 97.4722 396.514 104.164ZM237.596 58.4269C258.197 41.5593 279.065 25.035 300.212 8.85849C318.186 13.2829 335.974 18.2778 353.619 23.8802C350.473 43.7484 347.615 63.6536 345.072 83.6099C325.69 97.5325 306.554 111.77 287.64 126.328C278.75 124.32 269.833 122.47 260.883 120.749C251.799 119.075 242.701 117.554 233.571 116.162C234.067 106.655 234.632 97.1522 235.257 87.6494C235.975 77.9008 236.753 68.1615 237.596 58.4269ZM115.497 109.818C135.606 90.7706 155.993 72.0341 176.672 53.6129C186.321 54.3364 195.952 55.1805 205.573 56.1544C215.051 57.2257 224.51 58.4222 233.955 59.744C233.14 69.4648 232.38 79.1948 231.686 88.9248C231.083 98.4137 230.546 107.907 230.069 117.401C210.933 133.498 192.056 149.888 173.424 166.57C163.96 165.981 154.492 165.55 145.014 165.23C135.393 165.003 125.771 164.901 116.145 164.915C115.858 155.857 115.645 146.795 115.501 137.733C115.436 128.425 115.432 119.121 115.497 109.818ZM57.8375 221.324C47.9474 222.154 38.0759 223.1 28.2043 224.157C18.1891 225.335 8.19711 226.625 -1.79027 228.025C-2.86034 219.543 -3.8563 211.056 -4.78278 202.555C-5.64903 193.822 -6.43653 185.079 -7.15455 176.333C12.1717 155.416 31.7851 134.778 51.6904 114.414C61.775 113.644 71.8597 112.995 81.9583 112.466C91.9086 112.053 101.854 111.766 111.809 111.599C111.768 120.888 111.795 130.178 111.893 139.467C112.064 148.515 112.3 157.559 112.611 166.603C94.0904 184.579 75.8343 202.819 57.8375 221.324ZM62.947 247.61C61.8399 239.327 60.8022 231.04 59.8295 222.743C77.7845 204.312 95.9943 186.146 114.473 168.24C124.099 168.203 133.716 168.286 143.337 168.49C152.815 168.792 162.279 169.204 171.747 169.77C171.97 178.568 172.262 187.366 172.628 196.159C173.063 204.734 173.563 213.3 174.133 221.866C157.081 237.523 140.261 253.422 123.677 269.575C114.237 269.644 104.81 269.853 95.3736 270.187C85.7985 270.591 76.2373 271.138 66.6715 271.787C65.3651 263.741 64.1236 255.685 62.947 247.61ZM58.5648 366.838C49.0916 367.766 39.637 368.818 30.1916 369.982C27.8754 362.933 25.638 355.86 23.4932 348.751C21.3669 341.483 19.3241 334.202 17.3738 326.884C33.1285 309.307 49.1333 291.971 65.3929 274.857C74.9541 274.189 84.5107 273.624 94.0858 273.202C103.517 272.854 112.944 272.627 122.38 272.538C123.599 280.413 124.91 288.265 126.299 296.107C127.717 303.769 129.222 311.407 130.811 319.037C115.849 334.017 101.113 349.21 86.5999 364.63C77.2425 365.247 67.9037 365.985 58.5648 366.838ZM95.4709 386.706C93.1362 379.777 90.8848 372.83 88.7215 365.846C103.193 350.49 117.892 335.362 132.812 320.446C141.934 320.493 151.041 320.655 160.157 320.957C169.139 321.318 178.103 321.796 187.071 322.418C188.526 329.912 190.073 337.379 191.694 344.836C193.339 352.136 195.076 359.408 196.887 366.671C183.389 379.467 170.084 392.457 156.984 405.661C147.946 405.684 138.922 405.879 129.889 406.046C120.842 406.236 111.809 406.56 102.771 406.992C100.256 400.253 97.8195 393.5 95.4709 386.706ZM74.4538 469.819C70.961 464.032 67.5609 458.193 64.2719 452.284C76.6125 437.824 89.2125 423.595 102.021 409.543C111.054 409.097 120.087 408.759 129.13 408.555C138.177 408.29 147.219 408.114 156.271 408.077C158.86 414.542 161.538 420.961 164.289 427.356C167.055 433.64 169.904 439.887 172.831 446.093C161.338 458.104 150.045 470.293 138.955 482.68C130.028 483.111 121.116 483.663 112.203 484.317C103.165 485.041 94.146 485.88 85.1314 486.826C81.495 481.21 77.9374 475.538 74.4538 469.819ZM66.6761 543.36C62.3773 538.389 58.1386 533.366 53.9602 528.297C64.0032 515.033 74.2871 501.973 84.8025 489.085C93.8125 488.129 102.827 487.276 111.856 486.543C120.764 485.875 129.672 485.314 138.594 484.874C142.068 490.527 145.616 496.139 149.234 501.704C152.866 507.204 156.562 512.659 160.324 518.066C150.786 529.243 141.452 540.569 132.326 552.084C123.603 552.826 114.894 553.68 106.19 554.63C97.3794 555.646 88.5918 556.768 79.8088 557.988C75.3757 553.16 70.9981 548.286 66.6761 543.36ZM70.2476 608.911C65.2262 604.672 60.2464 600.382 55.3036 596.05C63.2157 583.848 71.3918 571.85 79.8227 560.001C88.5964 558.772 97.3794 557.64 106.181 556.62C114.876 555.66 123.575 554.802 132.294 554.051C136.565 558.962 140.887 563.827 145.26 568.65C149.656 573.432 154.098 578.162 158.591 582.856C150.925 593.17 143.485 603.619 136.273 614.258C127.828 615.232 119.402 616.303 110.98 617.458C102.475 618.645 93.9839 619.986 85.5159 621.409C80.3925 617.286 75.3015 613.122 70.2476 608.911ZM85.8448 623.2C94.3035 621.771 102.781 620.421 111.276 619.23C119.689 618.07 128.106 616.994 136.541 616.016C141.493 620.259 146.482 624.461 151.504 628.626C156.549 632.758 161.626 636.853 166.735 640.916C160.852 650.395 155.214 659.986 149.836 669.763C141.748 670.894 133.679 672.109 125.614 673.408C117.493 674.771 109.391 676.218 101.298 677.74C95.6006 674.22 89.9167 670.667 84.2605 667.082C78.6322 663.469 73.0271 659.824 67.4451 656.142C73.2911 644.992 79.4336 634.033 85.8448 623.2ZM20.5794 712.277C14.3211 709.244 8.07204 706.183 1.83687 703.104C5.90409 691.709 10.379 680.518 15.2105 669.429C23.558 667.23 31.9241 665.106 40.3226 663.117C48.6608 661.16 57.013 659.277 65.3883 657.477C70.9888 661.141 76.6171 664.772 82.264 668.367C87.9433 671.933 93.6411 675.472 99.3574 678.973C94.8362 688.884 90.63 698.888 86.7759 709.072C78.8685 710.923 70.9842 712.847 63.1138 714.846C55.2202 716.896 47.3499 719.025 39.4934 721.214C33.1748 718.25 26.8702 715.273 20.5794 712.277ZM53.3951 760.755C46.7013 758.209 40.0168 755.645 33.337 753.066C35.2455 742.817 37.608 732.757 40.3828 722.712C48.2207 720.518 56.0772 718.394 63.9523 716.344C71.8087 714.35 79.6745 712.421 87.568 710.57C93.6642 713.692 99.7836 716.78 105.917 719.827C112.055 722.874 118.207 725.889 124.377 728.871C121.653 737.919 119.29 746.995 117.308 756.234C109.966 758.089 102.646 760.009 95.3365 761.994C88.0406 764.021 80.7631 766.121 73.5042 768.278C66.7965 765.787 60.0935 763.283 53.3951 760.755ZM32.077 812.833C38.7198 810.291 45.3765 807.792 52.0517 805.334C58.7964 802.917 65.5504 800.552 72.3276 798.224C79.3085 800.39 86.2942 802.542 93.2798 804.684C100.238 806.813 107.2 808.928 114.162 811.038C115.186 819.446 116.641 827.623 118.605 835.859C112.601 838.067 106.616 840.312 100.641 842.593C94.776 844.908 88.93 847.254 83.0932 849.638C75.6629 847.941 68.2326 846.239 60.8022 844.537C53.3256 842.821 45.8443 841.105 38.3677 839.384C35.6624 830.623 33.6056 821.872 32.077 812.833Z" fill="url(#paint0_radial_189_818)"/>
</g>
<defs>
<radialGradient id="paint0_radial_189_818" cx="0" cy="0" r="1" gradientUnits="userSpaceOnUse" gradientTransform="translate(219.021 64.3784) scale(1110.11 1111.4)">
<stop stop-color="#987B00"/>
<stop offset="0.5" stop-color="#F9D84E"/>
</radialGradient>
<clipPath id="clip0_189_818">
<rect width="375" height="668" fill="white"/>
</clipPath>
</defs>
</svg>
