<svg width="70" height="17" viewBox="0 0 70 17" fill="none" xmlns="http://www.w3.org/2000/svg">
<g clip-path="url(#clip0_703_7702)">
<path d="M20.3084 2.43149C21.9256 2.43149 23.3029 3.0027 24.4381 4.14513C25.5806 5.28755 26.1518 6.66072 26.1518 8.26361C26.1518 9.88187 25.5806 11.2581 24.4381 12.3934C23.3029 13.5358 21.9266 14.107 20.3084 14.107C20.1976 14.107 20.0889 14.1029 19.9853 14.0957C19.8664 14.1029 19.7515 14.107 19.6408 14.107C18.0307 14.107 16.6545 13.5358 15.511 12.3934C14.3758 11.2581 13.8076 9.88187 13.8076 8.26361C13.8076 6.66072 14.3758 5.28858 15.511 4.14513C16.6534 3.0027 18.0297 2.43149 19.6408 2.43149C19.7525 2.43149 19.8674 2.43559 19.9853 2.44277C20.0889 2.43559 20.1966 2.43149 20.3084 2.43149ZM19.9853 11.3473C20.7422 11.3473 21.3913 11.0428 21.9328 10.4346C22.4671 9.83367 22.7337 9.10966 22.7337 8.26463C22.7337 7.41858 22.4671 6.69559 21.9328 6.09464C21.3913 5.49368 20.7422 5.19321 19.9853 5.19321C19.2285 5.19321 18.5793 5.49368 18.0379 6.09464C17.4964 6.69559 17.2257 7.4196 17.2257 8.26463C17.2257 9.11068 17.4964 9.83367 18.0379 10.4346C18.5793 11.0428 19.2285 11.3473 19.9853 11.3473Z" fill="#101F11"/>
<path d="M33.8995 2.52072C34.1148 2.52072 34.2851 2.60276 34.4112 2.76582C34.5445 2.92888 34.5897 3.11039 34.5445 3.3114L34.2881 4.45792C34.1764 5.17784 33.8985 5.49677 33.4534 5.41473C32.8073 5.31115 32.1694 5.48857 31.5387 5.94903C30.9819 6.35718 30.6629 6.76944 30.5819 7.18477C30.5665 7.25861 30.5563 7.34783 30.5481 7.45141V7.46269H30.5368V12.1934C30.5368 12.661 30.3696 13.062 30.0364 13.3953C29.702 13.7368 29.298 13.907 28.8232 13.907H28.7893C28.3145 13.907 27.9105 13.7368 27.5761 13.3953C27.2418 13.061 27.0757 12.661 27.0757 12.1934V4.59124C27.0757 4.11643 27.2428 3.70827 27.5761 3.36677C27.9176 3.03245 28.3258 2.86632 28.8006 2.86632H28.856C29.4939 2.86632 30.0692 3.24063 30.5809 3.99029C30.826 3.61187 31.067 3.34114 31.3049 3.17808C31.9295 2.73916 32.794 2.52072 33.8995 2.52072Z" fill="#101F11"/>
<path d="M47.0343 12.2826C47.0343 12.7503 46.8671 13.1512 46.5338 13.4845C46.1995 13.8189 45.7955 13.985 45.3206 13.985H45.2868C44.8192 13.985 44.4182 13.8178 44.0849 13.4845C43.7506 13.1502 43.5844 12.7503 43.5844 12.2826V8.08621C43.5844 6.832 43.2358 6.03415 42.5384 5.69368C41.8041 5.33782 41.0432 5.40038 40.2566 5.88237C39.5665 6.30488 39.1727 6.76944 39.0763 7.274C39.0609 7.34784 39.0506 7.43706 39.0424 7.54063C39.0496 7.53345 39.0465 7.53653 39.0311 7.55191V12.2826C39.0311 12.7503 38.864 13.1512 38.5307 13.4845C38.1974 13.8178 37.7964 13.985 37.3288 13.985H37.2734C36.8058 13.985 36.4048 13.8178 36.0715 13.4845C35.7372 13.1502 35.571 12.7503 35.571 12.2826V4.06823C35.571 3.75647 35.6787 3.49292 35.8941 3.27756C36.1166 3.05502 36.3843 2.94324 36.695 2.94324H37.9749C38.2794 2.94324 38.5389 3.05502 38.7543 3.27756C38.9696 3.49292 39.0773 3.75237 39.0773 4.05695V4.06823C40.4802 3.24474 41.3478 2.79967 41.6821 2.73301C43.3814 2.38433 44.7279 2.83351 45.7226 4.07951C46.5831 5.17066 47.0179 6.58382 47.025 8.32003L47.0343 12.2826Z" fill="#101F11"/>
<path d="M59.1045 12.9051C59.0379 13.1943 58.8892 13.4322 58.6595 13.6178C58.4215 13.8035 58.1549 13.8999 57.8585 13.907C56.7674 13.9142 55.6506 13.9183 54.5082 13.9183C54.3964 13.9183 54.2856 13.9142 54.1739 13.907C54.0621 13.9142 53.9513 13.9183 53.8395 13.9183C52.2438 13.9183 50.8789 13.3697 49.7436 12.2713C48.6155 11.173 48.0515 9.84906 48.0515 8.29746C48.0515 6.73867 48.6155 5.41062 49.7436 4.31229C50.8789 3.21397 52.2438 2.66531 53.8395 2.66531C53.9513 2.66531 54.0621 2.66942 54.1739 2.67659C54.2856 2.66942 54.3964 2.66531 54.5082 2.66531C56.1039 2.66531 57.4647 3.21499 58.5928 4.31229C59.7281 5.41062 60.2962 6.73867 60.2962 8.29746V8.30874C60.2962 8.59793 60.1885 8.84713 59.9732 9.05429C59.7578 9.25426 59.5014 9.35476 59.205 9.35476H51.3137C51.5362 9.93316 51.9034 10.3977 52.4161 10.7464C52.9432 11.1104 53.5288 11.292 54.1749 11.292H57.8483C58.2636 11.2848 58.601 11.4478 58.8615 11.7822C59.1281 12.1093 59.2143 12.4764 59.1179 12.8846L59.1045 12.9051ZM54.1739 5.29269C53.5432 5.29269 52.9678 5.46703 52.4489 5.8157C51.9444 6.1572 51.5731 6.60638 51.3362 7.16221H57.0012C56.7715 6.60535 56.4044 6.1572 55.8988 5.8157C55.3799 5.46703 54.8045 5.29269 54.1739 5.29269Z" fill="#101F11"/>
<path d="M68.1478 2.52072C68.3631 2.52072 68.5334 2.60276 68.6595 2.76582C68.7928 2.92888 68.8379 3.11039 68.7928 3.3114L68.5364 4.45792C68.4247 5.17784 68.1467 5.49677 67.7017 5.41473C67.0556 5.31115 66.4177 5.48857 65.787 5.94903C65.2302 6.35718 64.9112 6.76944 64.8302 7.18477C64.8148 7.25861 64.8046 7.34783 64.7964 7.45141V7.46269H64.7851V12.1934C64.7851 12.661 64.6179 13.062 64.2846 13.3953C63.9503 13.7368 63.5463 13.907 63.0715 13.907H63.0376C62.5628 13.907 62.1587 13.7368 61.8244 13.3953C61.4901 13.061 61.324 12.661 61.324 12.1934V4.59124C61.324 4.11643 61.4911 3.70827 61.8244 3.36677C62.1659 3.03245 62.5741 2.86632 63.0489 2.86632H63.1043C63.7421 2.86632 64.3175 3.24063 64.8292 3.99029C65.0743 3.61187 65.3153 3.34114 65.5532 3.17808C66.1777 2.73916 67.0423 2.52072 68.1478 2.52072Z" fill="#101F11"/>
<path d="M3.66623 10.6418C3.66828 10.6418 3.66931 10.6418 3.67136 10.6418C3.67136 9.80499 3.69084 11.8858 3.66521 11.05C3.64367 10.3454 3.92979 10.0932 4.64047 10.1608C7.22683 10.4049 9.7537 12.5175 10.4336 15.0495C10.9679 17.039 10.9679 17.039 13.0589 16.9877C13.945 16.9662 14.1173 16.7857 14.0004 15.9171C13.6271 13.1461 12.3001 10.8746 10.2572 9.01842C9.79062 8.59488 9.67474 8.41028 10.2121 7.93855C12.2919 6.11415 13.6445 3.86622 13.9747 1.06861C14.0804 0.176406 13.9563 0.0184764 13.0548 0.00514467C12.5421 -0.00203395 12.0283 0.0195019 11.5155 0.00206812C10.9853 -0.0163912 10.7351 0.197942 10.6879 0.746594C10.3608 4.50922 6.52025 7.01866 3.54214 6.83509C2.78941 6.78894 2.02951 6.85047 1.27472 6.82996C0.68095 6.81355 0.453285 7.08224 0.455336 7.65755C0.464566 10.4931 0.464566 9.59886 0.455336 12.4344C0.453285 13.0261 0.726073 13.262 1.29934 13.2405C1.8121 13.221 2.32588 13.22 2.83864 13.2394C3.41806 13.261 3.68366 13.0149 3.67136 12.4252C3.6529 11.5586 3.66623 11.5053 3.66623 10.6418Z" fill="#101F11"/>
<path d="M3.28275 3.53393C3.27147 2.58636 2.54335 1.85003 1.62039 1.85209C0.686143 1.85516 -0.00813218 2.58225 7.19534e-05 3.54727C0.00827609 4.48254 0.698449 5.18809 1.60296 5.18809C2.53925 5.18809 3.29403 4.44562 3.28275 3.53393Z" fill="#45BF27"/>
<path d="M69.4254 12.3503C69.4141 11.4027 68.686 10.6664 67.762 10.6695C66.8287 10.6715 66.1334 11.3996 66.1427 12.3647C66.1509 13.2999 66.841 14.0055 67.7456 14.0055C68.6819 14.0045 69.4356 13.262 69.4254 12.3503Z" fill="#F9D84E"/>
</g>
<defs>
<clipPath id="clip0_703_7702">
<rect width="69.4255" height="17" fill="white"/>
</clipPath>
</defs>
</svg>
