<svg width="153" height="185" viewBox="0 0 153 185" fill="none" xmlns="http://www.w3.org/2000/svg">
<g clip-path="url(#clip0_703_7459)">
<path d="M39.9751 115.808C39.9974 115.808 40.0086 115.808 40.031 115.808C40.031 106.701 40.2434 129.345 39.9639 120.249C39.7291 112.583 42.8488 109.837 50.5978 110.574C78.7981 113.23 106.35 136.22 113.764 163.774C119.589 185.424 119.589 185.424 142.389 184.866C152.05 184.632 153.928 182.668 152.654 173.215C148.584 143.061 134.114 118.341 111.84 98.1415C106.753 93.5324 105.489 91.5236 111.348 86.3899C134.025 66.5362 148.774 42.0734 152.374 11.6288C153.526 1.91958 152.173 0.200937 142.344 0.0558568C136.753 -0.0222634 131.151 0.212097 125.56 0.0223767C119.779 -0.178504 117.051 2.15394 116.537 8.12457C112.97 49.0708 71.0939 76.3794 38.6221 74.3817C30.4147 73.8795 22.129 74.5491 13.8992 74.3259C7.42498 74.1474 4.94263 77.0713 4.96499 83.3321C5.06563 114.19 5.06563 104.458 4.96499 135.316C4.94263 141.755 7.91698 144.322 14.1676 144.087C19.7585 143.875 25.3605 143.864 30.9514 144.076C37.2691 144.311 40.1652 141.632 40.031 135.215C39.8297 125.785 39.9751 125.205 39.9751 115.808Z" fill="#101F11"/>
<path d="M35.7926 38.4575C35.6696 28.1456 27.7306 20.1327 17.667 20.155C7.48041 20.1885 -0.0896461 28.101 -0.000192016 38.6026C0.0892621 48.7805 7.61459 56.4586 17.4769 56.4586C27.6858 56.4586 35.9156 48.3788 35.7926 38.4575Z" fill="#45BF27"/>
</g>
<defs>
<clipPath id="clip0_703_7459">
<rect width="153" height="185" fill="white"/>
</clipPath>
</defs>
</svg>
